<?xml version="1.0" encoding="UTF-8" standalone="no"?>
<!-- Created with Inkscape (http://www.inkscape.org/) -->

<svg
   width="210mm"
   height="297mm"
   viewBox="0 0 210 297"
   version="1.1"
   id="svg1"
   inkscape:version="1.4.3 (fcd0343856, 2026-01-01)"
   sodipodi:docname="green_planet.svg"
   xmlns:inkscape="http://www.inkscape.org/namespaces/inkscape"
   xmlns:sodipodi="http://sodipodi.sourceforge.net/DTD/sodipodi-0.dtd"
   xmlns="http://www.w3.org/2000/svg"
   xmlns:svg="http://www.w3.org/2000/svg">
  <sodipodi:namedview
     id="namedview1"
     pagecolor="#ffffff"
     bordercolor="#000000"
     borderopacity="0.25"
     inkscape:showpageshadow="2"
     inkscape:pageopacity="0.0"
     inkscape:pagecheckerboard="0"
     inkscape:deskcolor="#d1d1d1"
     inkscape:document-units="mm"
     inkscape:zoom="1.0600255"
     inkscape:cx="410.3675"
     inkscape:cy="508.00666"
     inkscape:window-width="1850"
     inkscape:window-height="1016"
     inkscape:window-x="70"
     inkscape:window-y="27"
     inkscape:window-maximized="1"
     inkscape:current-layer="layer1" />
  <defs
     id="defs1" />
  <g
     inkscape:label="Layer 1"
     inkscape:groupmode="layer"
     id="layer1">
    <path
       d="m 195.94618,114.70566 c -0.1657,-0.12453 -0.33508,-0.25398 -0.5085,-0.38861 -3.74401,-1.28534 -7.48838,-1.85184 -11.23239,-2.49597 -5.94617,1.45424 -6.9486,4.45375 -2.24637,9.23561 5.15422,1.28464 9.39059,3.30374 11.23239,7.23832 2.13544,5.13934 -2.48683,8.16686 -10.98279,9.98389 l -2.49598,8.2367 4.49275,9.73481 c 4.33712,3.29336 -4.44567,14.60785 -14.97583,5.49114 -6.15997,0.51059 -3.55867,-7.31018 0.7488,-13.72836 0.70491,-5.26473 -0.92538,-9.86205 -9.4847,-12.47986 -7.90064,-4.38391 -12.72178,-7.00781 -15.97473,-8.7359 -6.7891,1.79708 -6.06573,-3.91809 -21.71496,6.73912 -7.71705,-0.47066 -9.78514,-5.5633 -10.234,-11.98066 -0.42948,-7.30019 -0.19222,-14.20869 10.4836,-14.97635 13.69509,6.18906 49.43399,13.49539 39.18727,2.99517 -1.52562,-6.72179 -1.46778,-12.94328 9.4847,-15.724625 6.18785,-0.849395 5.23176,-4.080485 -10.48309,-12.230778 -12.53886,-4.881459 -15.1865,3.93329 -19.46909,10.483598 -17.73795,5.696317 -20.96939,-4.956289 -21.71547,-11.481986 0,0 -3.21878,-9.656859 2.70164,-33.385043 A 95.398895,95.398895 0 0 0 104.18796,45.410665 95.398895,95.398895 0 0 0 19.181258,97.510327 l 12.767696,14.809953 c 35.692932,24.21129 13.727845,35.44331 13.727845,35.44331 -3.265138,3.89316 -8.680839,7.42821 -0.499195,13.22917 7.995573,-0.39977 15.876358,1.26943 23.213054,12.72945 -4.055283,9.94734 -0.904409,10.68665 27.456205,-6.48952 16.644347,-15.15452 20.640977,5.33451 30.700967,8.7359 4.64877,-9.86325 11.11018,2.63287 17.7214,16.97312 8.46076,5.55511 9.93462,-0.32389 11.23239,-6.49004 11.24029,-8.3806 15.11463,0.18021 19.96777,6.49004 5.91924,11.88581 -15.33196,12.90322 -27.7058,17.4718 -16.92401,-2.06343 -21.85114,4.0306 -22.21415,13.22865 l 5.06946,8.83151 a 95.398895,95.398895 0 0 0 68.96788,-91.66418 95.398895,95.398895 0 0 0 -3.6406,-26.10383 z"
       style="fill:#70b65c;stroke-width:0.337862;fill-opacity:1"
       id="path7" />
  </g>
  <g
     inkscape:groupmode="layer"
     id="layer3"
     inkscape:label="Layer 2">
    <path
       d="m 130.6189,232.47367 -5.06946,-8.83151 c 0.36301,-9.19805 5.29014,-15.29208 22.21415,-13.22865 12.37384,-4.56858 33.62504,-5.58599 27.7058,-17.4718 -4.85314,-6.30983 -8.72748,-14.87064 -19.96777,-6.49004 -1.29777,6.16615 -2.77163,12.04515 -11.23239,6.49004 -6.61122,-14.34025 -13.07263,-26.83637 -17.7214,-16.97312 -10.05999,-3.40139 -14.05662,-23.89042 -30.700967,-8.7359 -28.360614,17.17617 -31.511488,16.43686 -27.456205,6.48952 -7.336696,-11.46002 -15.217481,-13.12922 -23.213054,-12.72945 -8.181644,-5.80096 -2.765943,-9.33601 0.499195,-13.22917 0,0 21.965087,-11.23202 -13.727845,-35.44331 L 19.181258,97.510327 A 95.398895,95.398895 0 0 0 8.7891276,140.80949 95.398895,95.398895 0 0 0 104.18796,236.20832 95.398895,95.398895 0 0 0 130.6189,232.47367 Z"
       style="fill:#d2d63c;stroke-width:0.264583"
       id="path6" />
    <path
       style="fill:#ffffff;fill-opacity:0.237033;stroke-width:0.264583"
       id="path4"
       d="m 132.20644,46.896617 c -0.30123,0.569463 -0.1354,0.257736 -0.49843,0.934686 0,0 3.34741,1.932667 3.34741,1.932667 v 0 c 0.40374,-0.650642 0.21208,-0.353208 0.57067,-0.895043 z" />
    <path
       d="M 195.94618,114.70566 A 95.398895,95.398895 0 0 0 122.75943,47.235876 c -5.92042,23.728184 -2.70164,33.385043 -2.70164,33.385043 0.74608,6.525697 3.97752,17.178303 21.71547,11.481986 4.28259,-6.550308 6.93023,-15.365057 19.46909,-10.483598 15.71485,8.150293 16.67094,11.381383 10.48309,12.230778 -10.95248,2.781345 -11.01032,9.002835 -9.4847,15.724625 10.24672,10.50022 -25.49218,3.19389 -39.18727,-2.99517 -10.67582,0.76766 -10.91308,7.67616 -10.4836,14.97635 0.44886,6.41736 2.51695,11.51 10.234,11.98066 15.64923,-10.65721 14.92586,-4.94204 21.71496,-6.73912 3.25295,1.72809 8.07409,4.35199 15.97473,8.7359 8.55932,2.61781 10.18961,7.21513 9.4847,12.47986 -4.30747,6.41818 -6.90877,14.23895 -0.7488,13.72836 10.53016,9.11671 19.31295,-2.19778 14.97583,-5.49114 l -4.49275,-9.73481 2.49598,-8.2367 c 8.49596,-1.81703 13.11823,-4.84455 10.98279,-9.98389 -1.8418,-3.93458 -6.07817,-5.95368 -11.23239,-7.23832 -4.70223,-4.78186 -3.6998,-7.78137 2.24637,-9.23561 3.74401,0.64413 7.48838,1.21063 11.23239,2.49597 0.17342,0.13463 0.3428,0.26408 0.5085,0.38861 z"
       style="fill:#d1d63d;stroke-width:0.264583"
       id="path8" />
  </g>
  <g
     inkscape:groupmode="layer"
     id="layer4"
     inkscape:label="Layer 3">
    <path
       d="M 181.72224,84.570032 A 95.398895,95.398895 0 0 0 104.46081,45.132129 95.398895,95.398895 0 0 0 9.0619792,140.53096 a 95.398895,95.398895 0 0 0 3.4979778,25.59585 95.398895,95.398895 0 0 0 77.261434,39.4379 95.398895,95.398895 0 0 0 95.398829,-95.39882 95.398895,95.398895 0 0 0 -3.49798,-25.595858 z"
       style="fill:#ffffff;fill-opacity:0.237033;stroke-width:0.337862"
       id="path14" />
  </g>
</svg>
