<?xml version="1.0" encoding="UTF-8" standalone="no"?>
<!-- Created with Inkscape (http://www.inkscape.org/) -->

<svg
   width="210mm"
   height="297mm"
   viewBox="0 0 210 297"
   version="1.1"
   id="svg1"
   inkscape:version="1.4.3 (fcd0343856, 2026-01-01)"
   sodipodi:docname="red_planet.svg"
   xmlns:inkscape="http://www.inkscape.org/namespaces/inkscape"
   xmlns:sodipodi="http://sodipodi.sourceforge.net/DTD/sodipodi-0.dtd"
   xmlns="http://www.w3.org/2000/svg"
   xmlns:svg="http://www.w3.org/2000/svg">
  <sodipodi:namedview
     id="namedview1"
     pagecolor="#ffffff"
     bordercolor="#000000"
     borderopacity="0.25"
     inkscape:showpageshadow="2"
     inkscape:pageopacity="0.0"
     inkscape:pagecheckerboard="0"
     inkscape:deskcolor="#d1d1d1"
     inkscape:document-units="mm"
     inkscape:zoom="0.88178281"
     inkscape:cx="492.18469"
     inkscape:cy="538.11437"
     inkscape:window-width="1850"
     inkscape:window-height="1016"
     inkscape:window-x="70"
     inkscape:window-y="27"
     inkscape:window-maximized="1"
     inkscape:current-layer="layer2" />
  <defs
     id="defs1" />
  <g
     inkscape:label="Layer 1"
     inkscape:groupmode="layer"
     id="layer1"
     style="display:inline">
    <path
       d="m 191.33044,173.78991 a 124.43406,114.82773 8.6222916 0 1 -122.176522,36.20399 124.43406,114.82773 8.6222916 0 1 -9.527067,-2.51302 7.8026672,6.129001 58.859247 0 0 0.572575,0.005 124.53007,114.7392 4.9187016 0 0 10.458277,2.00091 124.53007,114.7392 4.9187016 0 0 101.674927,-26.9291 124.43406,114.82773 34.999288 0 1 -36.56572,10.86704 114.44205,123.15972 46.480714 0 1 -3.47266,0.98547 92.652275,92.652275 0 0 1 -46.704125,12.6323 92.652275,92.652275 0 0 1 -71.108838,-33.25585 92.652275,92.652275 0 0 0 20.060791,34.86919 125.19911,104.93998 13.151774 0 0 54.5052,10.65413 125.19911,104.93998 13.151774 0 0 10.560596,-0.34727 6.1161381,7.1897146 48.057267 0 0 0.569476,0.0765 124.83514,105.24595 11.696511 0 1 -9.675381,0.9462 124.83514,105.24595 11.696511 0 1 -50.287369,-5.6441 92.652275,92.652275 0 0 0 8.210351,6.72 104.93998,125.19911 80.888176 0 0 81.515959,-8.4553 104.93998,125.19911 80.888176 0 0 9.64178,-4.32221 6.1161381,7.1897146 25.793669 0 0 0.55656,-0.14521 105.24595,124.83514 79.432913 0 1 -8.59586,4.54132 105.24595,124.83514 79.432913 0 1 -30.36197,10.7394 104.93998,125.19911 80.888176 0 0 29.88603,-8.54987 104.93998,125.19911 80.888176 0 0 9.64179,-4.32221 6.1161381,7.1897146 25.793669 0 0 0.55656,-0.14522 105.24595,124.83514 79.432913 0 1 -8.59586,4.54133 105.24595,124.83514 79.432913 0 1 -59.781883,14.56707 104.93998,125.19911 80.888176 0 0 79.972893,-8.72918 104.93998,125.19911 80.888176 0 0 9.64179,-4.32222 6.1161381,7.1897146 25.793669 0 0 0.55656,-0.14521 105.24595,124.83514 79.432913 0 1 -8.59534,4.54132 105.24595,124.83514 79.432913 0 1 -78.637581,13.87099 92.652275,92.652275 0 0 0 27.080001,4.04575 92.652275,92.652275 0 0 0 88.42406,-64.98208 z"
       style="fill:#895d5d;stroke-width:0.342402"
       id="path86" />
    <path
       d="m 194.91782,156.0003 a 114.44205,123.15972 46.480714 0 1 -1.15859,1.25832 6.0493302,7.7981887 4.1046045 0 0 0.231,-0.12609 114.44205,123.15972 50.585318 0 1 -0.99736,0.94103 114.44205,123.15972 46.480714 0 1 -4.88601,4.88859 114.44205,123.15972 46.480714 0 1 -7.34218,6.4735 124.53007,114.7392 31.295698 0 0 13.72526,-10.91768 124.53007,114.7392 4.9187016 0 0 0.29249,-0.42891 92.652275,92.652275 0 0 0 0.13539,-2.08876 z"
       style="fill:#895d5d;stroke-width:0.342402"
       id="path82" />
    <path
       d="m 195.34053,139.76615 a 124.43406,114.82773 34.999288 0 1 -2.13424,2.651 124.43406,114.82773 34.999288 0 1 -32.62126,26.38185 92.652275,92.652275 0 0 1 -4.87154,6.14949 104.93998,125.19911 80.888176 0 0 8.81755,-3.9858 6.1161381,7.1897146 25.793669 0 0 0.55604,-0.14521 105.24595,124.83514 79.432913 0 1 -8.59534,4.54133 105.24595,124.83514 79.432913 0 1 -1.96164,0.93275 92.652275,92.652275 0 0 1 -5.32577,5.46117 114.44205,123.15972 54.722764 0 0 35.92752,-17.93741 114.44205,123.15972 54.722764 0 0 6.54792,-4.94388 114.44205,123.15972 50.61816 0 0 2.76883,-2.59312 6.0493302,7.7981887 0 0 0 0.46973,-0.28526 92.652275,92.652275 0 0 0 0.64028,-9.8733 92.652275,92.652275 0 0 0 -0.21808,-6.35361 z"
       style="fill:#895d5d;stroke-width:0.342402"
       id="path74" />
    <path
       d="m 192.05546,120.88409 a 124.43406,114.82773 34.999288 0 1 -15.85691,12.86278 92.652275,92.652275 0 0 1 -7.50549,21.61264 124.53007,114.7392 31.295698 0 0 24.87187,-24.81296 124.53007,114.7392 31.295698 0 0 0.54208,-0.76429 92.652275,92.652275 0 0 0 -2.05155,-8.89817 z"
       style="fill:#895d5d;stroke-width:0.342402"
       id="path72" />
    <path
       d="m 187.32603,107.93863 a 124.32988,114.92395 38.740115 0 1 -3.86694,4.2447 124.32988,114.92395 38.740115 0 1 -5.2617,5.10719 92.652275,92.652275 0 0 1 -0.40462,6.22132 156.85574,171.70756 18.886228 0 0 0.4842,-0.15038 124.53007,114.7392 31.295698 0 0 11.26133,-10.09499 92.652275,92.652275 0 0 0 -2.21227,-5.32784 z"
       style="fill:#895d5d;stroke-width:0.342402"
       id="path68" />
    <path
       d="m 174.01522,86.722872 a 92.652275,92.652275 0 0 1 2.90628,12.075749 124.53007,114.7392 31.295698 0 0 3.283,-3.761528 92.652275,92.652275 0 0 0 -6.18928,-8.314221 z"
       style="fill:#895d5d;stroke-width:0.342402"
       id="path54" />
    <path
       d="m 10.269657,144.43615 a 125.19911,104.93998 13.814811 0 0 0.188103,0.0672 93.567818,92.144389 46.480714 0 1 0.0279,-3.90932 92.652275,92.652275 0 0 0 -0.216008,3.84215 z"
       style="fill:#ab5f5f;stroke-width:0.342402"
       id="path137" />
    <path
       d="m 10.98641,153.07644 a 93.567818,92.144389 46.480714 0 1 -0.408244,-5.06532 124.83514,105.24595 12.359548 0 1 -0.306442,-0.0899 92.652275,92.652275 0 0 0 0.208773,4.67052 104.93998,125.19911 80.888176 0 0 0.505913,0.48472 z"
       style="fill:#ab5f5f;stroke-width:0.342402"
       id="path135" />
    <path
       d="m 10.664465,137.41228 a 92.652275,92.652275 0 0 0 -0.163297,2.90629 113.70962,122.07779 46.480714 0 0 0.122473,0.1788 93.567818,92.144389 50.61816 0 0 0.04754,1.17874 114.44205,123.15972 50.61816 0 0 0.08268,0.13281 93.567818,92.144389 50.585318 0 1 -0.0894,-4.39664 z"
       style="fill:#ab5f5f;stroke-width:0.342402"
       id="path133" />
    <path
       d="m 119.44232,187.50122 a 114.44205,123.15972 54.722764 0 0 29.76201,-5.74849 92.652275,92.652275 0 0 0 5.32577,-5.46117 105.24595,124.83514 79.432913 0 1 -35.08778,11.20966 z"
       style="fill:#ab5f5f;stroke-width:0.342402"
       id="path108" />
    <path
       d="m 40.004277,164.04683 a 114.44205,123.15972 54.722764 0 0 21.41678,12.99456 124.53007,114.7392 31.295698 0 0 2.188497,0.9865 114.44205,123.15972 54.722764 0 0 10.395231,3.97185 124.53007,114.7392 31.295698 0 0 2.098063,0.64493 114.44205,123.15972 54.722764 0 0 11.751738,2.98586 104.93998,125.19911 80.888176 0 0 67.034664,-10.34562 104.93998,125.19911 80.888176 0 0 0.82424,-0.33642 92.652275,92.652275 0 0 0 4.87154,-6.14949 124.43406,114.82773 34.999288 0 1 -120.580753,-4.75217 z"
       style="fill:#ab5f5f;stroke-width:0.342402"
       id="path104" />
    <path
       d="m 132.29425,194.41036 a 114.44205,123.15972 46.480714 0 1 -98.965018,-17.75913 105.24595,124.83514 79.432913 0 1 -21.535637,-13.71027 92.652275,92.652275 0 0 0 2.687692,10.84585 92.652275,92.652275 0 0 0 71.108838,33.25585 92.652275,92.652275 0 0 0 46.704125,-12.6323 z"
       style="fill:#ab5f5f;stroke-width:0.342402"
       id="path98" />
    <path
       d="m 166.40225,126.56127 a 156.85574,171.70756 18.886228 0 0 11.39052,-3.04943 92.652275,92.652275 0 0 0 0.40462,-6.22132 124.32988,114.92395 38.740115 0 1 -11.79514,9.27075 z"
       style="fill:#ab5f5f;stroke-width:0.342402"
       id="path66" />
    <path
       d="m 58.750419,138.20448 a 124.53007,114.7392 31.295698 0 0 110.322981,-8.41705 156.02653,172.62012 18.826015 0 1 -14.46268,3.73775 124.32988,114.92395 38.740115 0 1 -95.860301,4.6793 z"
       style="fill:#ab5f5f;stroke-width:0.342402"
       id="path64" />
    <path
       d="M 16.943152,111.55443 A 124.53007,114.7392 31.295698 0 0 101.23671,134.71581 156.02653,172.62012 18.826015 0 1 24.972636,96.012227 92.652275,92.652275 0 0 0 16.943152,111.55443 Z"
       style="fill:#ab5f5f;stroke-width:0.342402"
       id="path63" />
    <path
       d="m 23.961845,148.59455 a 125.19911,104.93998 13.814811 0 0 33.83411,4.48551 125.19911,104.93998 13.814811 0 0 10.563697,-0.22479 6.1161381,7.1897146 48.720304 0 0 0.568957,0.0832 124.83514,105.24595 12.359548 0 1 -9.685713,0.83406 124.83514,105.24595 12.359548 0 1 -32.492591,-1.99626 114.44205,123.15972 54.722764 0 0 5.829102,5.9123 124.53007,114.7392 31.295698 0 0 136.113653,-2.32906 92.652275,92.652275 0 0 0 7.50549,-21.61264 124.43406,114.82773 34.999288 0 1 -146.59984,-10.43812 124.32988,114.92395 38.740115 0 1 -13.251387,-10.234 92.652275,92.652275 0 0 0 -4.745964,17.3023 114.44205,123.15972 54.722764 0 0 6.893119,11.14041 114.44205,123.15972 54.722764 0 0 5.467367,7.07709 z"
       style="fill:#ab5f5f;stroke-width:0.342402"
       id="path62" />
    <path
       d="M 42.065649,90.042566 A 156.02653,172.62012 18.826015 0 1 39.121126,90.27666 125.19911,104.93998 13.151774 0 0 71.451453,105.98371 124.83514,105.24595 11.696511 0 1 42.065649,90.042566 Z"
       style="fill:#ab5f5f;stroke-width:0.342402"
       id="path39" />
    <path
       d="m 167.74222,79.932072 a 124.32988,114.92395 13.583483 0 1 -102.373083,8.76484 124.32988,114.92395 13.583483 0 1 -4.519104,-1.555978 156.02653,172.62012 18.826015 0 1 -10.954887,1.989026 125.19911,104.93998 13.151774 0 0 61.381264,24.38973 125.19911,104.93998 13.151774 0 0 7.44813,0.4377 125.19911,104.93998 13.151774 0 0 10.56059,-0.34675 6.1161381,7.1897146 48.057267 0 0 0.56999,0.0765 124.83514,105.24595 11.696511 0 1 -9.67538,0.94619 124.83514,105.24595 11.696511 0 1 -1.2423,0.0729 125.19911,104.93998 13.151774 0 0 14.50971,0.78083 125.19911,104.93998 13.151774 0 0 10.5606,-0.34727 6.1161381,7.1897146 48.057267 0 0 0.56999,0.0765 124.83514,105.24595 11.696511 0 1 -9.67538,0.9462 124.83514,105.24595 11.696511 0 1 -31.41669,-1.48932 124.83514,105.24595 11.696511 0 1 -62.841122,-17.813896 156.85574,171.70756 18.886228 0 0 5.281331,4.190956 125.19911,104.93998 13.151774 0 0 78.992591,23.28437 125.19911,104.93998 13.151774 0 0 10.5606,-0.34727 6.1161381,7.1897146 48.057267 0 0 0.56947,0.0765 124.83514,105.24595 11.696511 0 1 -9.67486,0.94619 124.83514,105.24595 11.696511 0 1 -44.750238,-4.14187 156.85574,171.70756 18.886228 0 0 44.581778,9.28936 124.53007,114.7392 31.295698 0 0 50.71628,-31.358809 92.652275,92.652275 0 0 0 -2.90628,-12.075749 92.652275,92.652275 0 0 0 -6.273,-6.7908 z"
       style="fill:#ab5f5f;stroke-width:0.342402"
       id="path23" />
    <path
       d="M 138.77448,60.691903 A 156.02653,172.62012 18.826015 0 1 87.730562,78.305815 156.02653,172.62012 18.826015 0 1 61.936271,86.898055 124.53007,114.7392 6.139066 0 0 68.464555,88.190999 124.53007,114.7392 6.139066 0 0 158.36966,71.902071 92.652275,92.652275 0 0 0 138.77448,60.691903 Z"
       style="fill:#ab5f5f;stroke-width:0.342402"
       id="path22" />
    <path
       d="m 38.15116,79.854041 a 125.19911,104.93998 13.151774 0 0 5.185213,4.35994 156.85574,171.70756 18.886228 0 0 29.786812,-4.190959 156.02653,172.62012 18.826015 0 1 -33.211409,-1.845365 92.652275,92.652275 0 0 0 -1.760616,1.676384 z"
       style="fill:#ab5f5f;stroke-width:0.342402"
       id="path17" />
    <path
       d="m 130.12746,57.556694 a 124.83514,105.24595 11.696511 0 1 -6.99492,0.615983 124.83514,105.24595 11.696511 0 1 -38.904606,-2.80293 92.652275,92.652275 0 0 0 -36.59725,16.392798 156.85574,171.70756 18.886228 0 0 49.731332,-0.06976 156.85574,171.70756 18.886228 0 0 10.800894,-4.781104 156.85574,171.70756 18.886228 0 0 12.25041,-6.973734 7.9196716,11.382283 10.039381 0 0 0.70694,-0.234611 156.02653,172.62012 18.826015 0 1 -10.9213,7.327718 156.02653,172.62012 18.826015 0 1 -6.3376,3.713468 156.85574,171.70756 18.886228 0 0 32.91169,-10.865487 92.652275,92.652275 0 0 0 -6.64559,-2.322338 z"
       style="fill:#ab5f5f;stroke-width:0.342402"
       id="path11" />
    <path
       d="m 91.293652,54.198242 a 125.19911,104.93998 13.151774 0 0 30.383678,3.299024 125.19911,104.93998 13.151774 0 0 7.67653,-0.174667 92.652275,92.652275 0 0 0 -26.44748,-3.855062 92.652275,92.652275 0 0 0 -11.612728,0.730705 z"
       style="fill:#ab5f5f;stroke-width:0.342402"
       id="path9" />
  </g>
  <g
     inkscape:groupmode="layer"
     id="layer2"
     inkscape:label="Layer 2">
    <path
       d="m 10.45776,144.50332 a 125.19911,104.93998 13.814811 0 0 2.411739,0.83406 114.44205,123.15972 50.585318 0 1 -2.102198,-3.24166 93.567818,92.144389 50.585318 0 1 -0.01343,-0.2868 114.44205,123.15972 50.61816 0 1 -0.08268,-0.13281 93.567818,92.144389 50.61816 0 1 -0.04754,-1.17874 113.70962,122.07779 46.480714 0 1 -0.122473,-0.1788 92.652275,92.652275 0 0 0 -0.0155,0.27543 93.567818,92.144389 46.480714 0 0 -0.0279,3.90932 z"
       style="fill:#a58365;stroke-width:0.480523"
       id="path129" />
    <path
       d="m 10.98641,153.07644 a 104.93998,125.19911 80.888176 0 0 28.956372,19.84892 114.44205,123.15972 50.585318 0 1 -21.071582,-19.53937 114.44205,123.15972 50.585318 0 1 -3.097486,-3.95532 124.83514,105.24595 12.359548 0 1 -5.195548,-1.41955 93.567818,92.144389 46.480714 0 0 0.408244,5.06532 z"
       style="fill:#a58365;stroke-width:0.480523"
       id="path119" />
    <path
       d="m 135.76691,193.42489 a 124.43406,114.82773 34.999288 0 1 -2.2562,0.26303 92.652275,92.652275 0 0 1 -1.21646,0.72244 114.44205,123.15972 46.480714 0 0 3.47266,-0.98547 z"
       style="fill:#a58365;stroke-width:0.480523"
       id="path113" />
    <path
       d="m 132.29425,194.41036 a 92.652275,92.652275 0 0 0 1.21646,-0.72244 124.43406,114.82773 34.999288 0 1 -30.18575,-0.48369 114.44205,123.15972 50.585318 0 1 -30.699936,-4.61419 105.24595,124.83514 79.432913 0 1 -39.295792,-11.93881 114.44205,123.15972 46.480714 0 0 98.965018,17.75913 z"
       style="fill:#ab8b6f;stroke-width:0.480523;fill-opacity:1"
       id="path99" />
    <path
       d="m 192.99287,158.07356 a 114.44205,123.15972 50.585318 0 1 -6.30969,5.52989 114.44205,123.15972 50.585318 0 1 -23.81405,15.60525 124.53007,114.7392 31.295698 0 0 17.89555,-9.77305 114.44205,123.15972 46.480714 0 0 7.34218,-6.4735 114.44205,123.15972 46.480714 0 0 4.88601,-4.88859 z"
       style="fill:#a58365;stroke-width:0.480523"
       id="path77" />
    <path
       d="m 194.91833,155.99306 a 6.0493302,7.7981887 0 0 1 -0.46973,0.28526 114.44205,123.15972 50.61816 0 1 -2.76883,2.59312 114.44205,123.15972 54.722764 0 0 1.80713,-1.48105 6.0493302,7.7981887 4.1046045 0 0 0.27233,-0.13177 114.44205,123.15972 46.480714 0 0 1.15859,-1.25832 92.652275,92.652275 0 0 0 5.1e-4,-0.007 z"
       style="fill:#a58365;stroke-width:0.480523"
       id="path75" />
    <path
       d="m 13.110311,145.418 a 125.19911,104.93998 13.814811 0 0 3.213757,1.03456 124.43406,114.82773 34.999288 0 1 -0.597896,-0.55914 7.8026672,6.129001 85.236243 0 0 0.51108,0.25942 124.53007,114.7392 31.295698 0 0 0.533817,0.43718 125.19911,104.93998 13.814811 0 0 7.190776,2.00453 114.44205,123.15972 54.722764 0 1 -5.467367,-7.07709 114.44205,123.15972 54.722764 0 1 -6.893119,-11.14041 92.652275,92.652275 0 0 0 -0.936894,7.03523 93.567818,92.144389 50.585318 0 0 0.0894,4.39664 114.44205,123.15972 50.61816 0 0 2.356445,3.60908 z"
       style="fill:#a58365;stroke-width:0.480523"
       id="path131" />
    <path
       d="m 12.869499,145.33738 a 125.19911,104.93998 13.814811 0 0 0.240812,0.0806 114.44205,123.15972 50.61816 0 1 -2.356445,-3.60908 93.567818,92.144389 50.585318 0 0 0.01343,0.2868 114.44205,123.15972 50.585318 0 0 2.102198,3.24166 z"
       style="fill:#a58365;stroke-width:0.480523"
       id="path130" />
    <path
       d="m 15.773714,149.43067 a 114.44205,123.15972 50.585318 0 0 3.097486,3.95532 114.44205,123.15972 50.585318 0 0 21.071582,19.53937 104.93998,125.19911 80.888176 0 0 1.497066,0.71055 114.44205,123.15972 50.61816 0 1 -22.670968,-20.66437 114.44205,123.15972 50.61816 0 1 -2.733683,-3.47472 124.83514,105.24595 12.359548 0 1 -0.261483,-0.0662 z"
       style="fill:#a58365;stroke-width:0.480523"
       id="path125" />
    <path
       d="m 26.750305,151.77627 a 124.83514,105.24595 12.359548 0 1 -4.321183,-0.81959 124.53007,114.7392 31.295698 0 0 2.288749,1.63504 124.53007,114.7392 31.295698 0 0 7.861536,5.09685 114.44205,123.15972 54.722764 0 1 -5.829102,-5.9123 z"
       style="fill:#a58365;stroke-width:0.480523"
       id="path123" />
    <path
       d="m 75.003691,188.90578 a 114.44205,123.15972 50.61816 0 0 25.288899,3.84473 124.43406,114.82773 34.999288 0 1 -13.282397,-2.87269 105.24595,124.83514 79.432913 0 1 -12.006502,-0.97204 z"
       style="fill:#a58365;stroke-width:0.480523"
       id="path116" />
    <path
       d="m 75.003691,188.90578 a 105.24595,124.83514 79.432913 0 1 -2.378667,-0.31574 114.44205,123.15972 50.585318 0 0 30.699936,4.61419 124.43406,114.82773 34.999288 0 1 -3.03237,-0.45372 114.44205,123.15972 50.61816 0 1 -25.288899,-3.84473 z"
       style="fill:#a58365;stroke-width:0.480523"
       id="path115" />
    <path
       d="m 76.102848,182.64467 a 124.53007,114.7392 31.295698 0 0 8.880078,2.73058 104.93998,125.19911 80.888176 0 0 2.87166,0.25528 114.44205,123.15972 54.722764 0 1 -11.751738,-2.98586 z"
       style="fill:#a58365;stroke-width:0.480523"
       id="path114" />
    <path
       d="m 119.44232,187.50122 a 105.24595,124.83514 79.432913 0 1 -8.9147,1.37717 124.53007,114.7392 31.295698 0 0 34.82371,-3.68504 92.652275,92.652275 0 0 0 3.853,-3.44062 114.44205,123.15972 54.722764 0 1 -29.76201,5.74849 z"
       style="fill:#a58365;stroke-width:0.480523"
       id="path109" />
    <path
       d="m 40.004277,164.04683 a 124.43406,114.82773 34.999288 0 1 -16.85892,-11.66957 124.43406,114.82773 34.999288 0 1 -2.056205,-1.70222 124.83514,105.24595 12.359548 0 1 -5.053955,-1.17822 114.44205,123.15972 50.61816 0 0 2.733683,3.47472 114.44205,123.15972 50.61816 0 0 22.670968,20.66437 104.93998,125.19911 80.888176 0 0 24.432617,8.51059 124.43406,114.82773 34.999288 0 1 -28.024646,-17.51624 124.43406,114.82773 34.999288 0 1 -7.419185,-6.48384 7.8026672,6.129001 85.236243 0 0 0.51108,0.25941 124.53007,114.7392 31.295698 0 0 8.480619,6.43889 124.53007,114.7392 31.295698 0 0 22.000724,12.19667 114.44205,123.15972 54.722764 0 1 -21.41678,-12.99456 z"
       style="fill:#a58365;stroke-width:0.480523"
       id="path101" />
    <path
       d="m 193.75923,157.25862 a 114.44205,123.15972 46.480714 0 1 -0.76636,0.81494 114.44205,123.15972 50.585318 0 0 0.99736,-0.94103 6.0493302,7.7981887 4.1046045 0 1 -0.231,0.12609 z"
       style="fill:#a58365;stroke-width:0.480523"
       id="path83" />
    <path
       d="m 149.20433,181.75273 a 92.652275,92.652275 0 0 1 -3.853,3.44062 124.53007,114.7392 31.295698 0 0 12.50932,-3.95067 114.44205,123.15972 50.61816 0 0 28.71401,-17.95807 114.44205,123.15972 50.61816 0 0 5.10511,-4.41317 114.44205,123.15972 54.722764 0 1 -6.54792,4.94388 114.44205,123.15972 54.722764 0 1 -35.92752,17.93741 z"
       style="fill:#a58365;stroke-width:0.480523"
       id="path78" />
    <path
       d="m 191.67977,158.87144 a 114.44205,123.15972 50.61816 0 1 -5.10511,4.41317 114.44205,123.15972 50.61816 0 1 -28.71401,17.95807 124.53007,114.7392 31.295698 0 0 5.00848,-2.03398 114.44205,123.15972 50.585318 0 0 23.81405,-15.60525 114.44205,123.15972 50.585318 0 0 6.30969,-5.52989 114.44205,123.15972 46.480714 0 0 0.76636,-0.81494 6.0493302,7.7981887 4.1046045 0 1 -0.27233,0.13177 114.44205,123.15972 54.722764 0 1 -1.80713,1.48105 z"
       style="fill:#a58365;stroke-width:0.480523"
       id="path76" />
    <path
       d="m 52.443827,223.82406 a 104.93998,125.19911 80.888176 0 0 48.737593,-0.40462 105.24595,124.83514 79.432913 0 0 30.36197,-10.7394 105.24595,124.83514 79.432913 0 0 8.59586,-4.54132 6.1161381,7.1897146 25.793669 0 1 -0.55656,0.14521 104.93998,125.19911 80.888176 0 1 -9.64178,4.32221 104.93998,125.19911 80.888176 0 1 -81.515959,8.4553 92.652275,92.652275 0 0 0 4.018876,2.76262 z"
       style="fill:#af9075;stroke-width:0.463936;fill-opacity:1"
       id="path91" />
    <path
       d="m 10.269657,144.43615 a 92.652275,92.652275 0 0 0 -0.0155,1.68361 92.652275,92.652275 0 0 0 0.01757,1.80144 124.83514,105.24595 12.359548 0 0 0.306442,0.0899 93.567818,92.144389 46.480714 0 1 -0.120406,-3.5078 125.19911,104.93998 13.814811 0 1 -0.188103,-0.0672 z"
       style="fill:#a58365;stroke-width:0.463936"
       id="path136" />
    <path
       d="m 10.45776,144.50332 a 93.567818,92.144389 46.480714 0 0 0.120406,3.5078 124.83514,105.24595 12.359548 0 0 5.195548,1.41955 114.44205,123.15972 50.585318 0 1 -2.904215,-4.09329 125.19911,104.93998 13.814811 0 1 -2.411739,-0.83406 z"
       style="fill:#ac8c71;stroke-width:0.463936;fill-opacity:1"
       id="path128" />
    <path
       d="m 12.869499,145.33738 a 114.44205,123.15972 50.585318 0 0 2.904215,4.09329 124.83514,105.24595 12.359548 0 0 0.261483,0.0662 114.44205,123.15972 50.61816 0 1 -2.924886,-4.07882 125.19911,104.93998 13.814811 0 1 -0.240812,-0.0806 z"
       style="fill:#a58365;stroke-width:0.463936"
       id="path127" />
    <path
       d="m 13.110311,145.418 a 114.44205,123.15972 50.61816 0 0 2.924886,4.07882 124.83514,105.24595 12.359548 0 0 5.053955,1.17822 124.43406,114.82773 34.999288 0 1 -4.765084,-4.22248 125.19911,104.93998 13.814811 0 1 -3.213757,-1.03456 z"
       style="fill:#ac8c71;stroke-width:0.463936;fill-opacity:1"
       id="path126" />
    <path
       d="m 16.771069,146.59002 a 124.53007,114.7392 31.295698 0 0 5.658053,4.36666 124.83514,105.24595 12.359548 0 0 4.321183,0.81959 114.44205,123.15972 54.722764 0 1 -2.78846,-3.18172 125.19911,104.93998 13.814811 0 1 -7.190776,-2.00453 z"
       style="fill:#a58365;stroke-width:0.463936"
       id="path121" />
    <path
       d="m 23.961845,148.59455 a 114.44205,123.15972 54.722764 0 0 2.78846,3.18172 124.83514,105.24595 12.359548 0 0 32.492591,1.99626 124.83514,105.24595 12.359548 0 0 9.685713,-0.83406 6.1161381,7.1897146 48.720304 0 1 -0.568957,-0.0832 125.19911,104.93998 13.814811 0 1 -10.563697,0.22479 125.19911,104.93998 13.814811 0 1 -33.83411,-4.48551 z"
       style="fill:#ac8c71;stroke-width:0.463936;fill-opacity:1"
       id="path120" />
    <path
       d="m 33.329232,176.65123 a 114.44205,123.15972 46.480714 0 1 -13.335104,-11.86852 114.44205,123.15972 46.480714 0 1 -8.891447,-10.68152 93.567818,92.144389 46.480714 0 1 -0.116271,-1.02475 104.93998,125.19911 80.888176 0 1 -0.505913,-0.48472 92.652275,92.652275 0 0 0 1.313098,10.34924 105.24595,124.83514 79.432913 0 0 21.535637,13.71027 z"
       style="fill:#a58365;stroke-width:0.463936"
       id="path134" />
    <path
       d="m 41.439848,173.63591 a 104.93998,125.19911 80.888176 0 1 -1.497066,-0.71055 114.44205,123.15972 50.585318 0 0 32.682242,15.66468 105.24595,124.83514 79.432913 0 0 2.378667,0.31574 114.44205,123.15972 50.61816 0 1 -33.563843,-15.26987 z"
       style="fill:#a58365;stroke-width:0.463936"
       id="path118" />
    <path
       d="m 41.439848,173.63591 a 114.44205,123.15972 50.61816 0 0 33.563843,15.26987 105.24595,124.83514 79.432913 0 0 12.006502,0.97204 124.43406,114.82773 34.999288 0 1 -21.137728,-7.73132 104.93998,125.19911 80.888176 0 1 -24.432617,-8.51059 z"
       style="fill:#a58365;stroke-width:0.463936"
       id="path117" />
    <path
       d="m 87.854586,185.63053 a 114.44205,123.15972 54.722764 0 0 31.587734,1.87069 105.24595,124.83514 79.432913 0 0 35.08778,-11.20966 92.652275,92.652275 0 0 0 1.18339,-1.34307 104.93998,125.19911 80.888176 0 1 -0.82424,0.33642 104.93998,125.19911 80.888176 0 1 -67.034664,10.34562 z"
       style="fill:#a58365;stroke-width:0.463936"
       id="path107" />
    <path
       d="m 87.854586,185.63053 a 104.93998,125.19911 80.888176 0 1 -2.87166,-0.25528 124.53007,114.7392 31.295698 0 0 25.544694,3.50314 105.24595,124.83514 79.432913 0 0 8.9147,-1.37717 114.44205,123.15972 54.722764 0 1 -31.587734,-1.87069 z"
       style="fill:#a58365;stroke-width:0.463936"
       id="path106" />
    <path
       d="m 33.329232,176.65123 a 105.24595,124.83514 79.432913 0 0 39.295792,11.93881 114.44205,123.15972 50.585318 0 1 -32.682242,-15.66468 104.93998,125.19911 80.888176 0 1 -28.956372,-19.84892 93.567818,92.144389 46.480714 0 0 0.116271,1.02475 114.44205,123.15972 46.480714 0 0 8.891447,10.68152 114.44205,123.15972 46.480714 0 0 13.335104,11.86852 z"
       style="fill:#ae8f74;stroke-width:0.463936;fill-opacity:1"
       id="path100" />
    <path
       d="m 154.5301,176.29156 a 105.24595,124.83514 79.432913 0 0 1.96164,-0.93275 105.24595,124.83514 79.432913 0 0 8.59534,-4.54133 6.1161381,7.1897146 25.793669 0 1 -0.55604,0.14521 104.93998,125.19911 80.888176 0 1 -8.81755,3.9858 92.652275,92.652275 0 0 1 -1.18339,1.34307 z"
       style="fill:#a58365;stroke-width:0.463936"
       id="path87" />
    <path
       d="m 101.18142,223.41944 a 105.24595,124.83514 79.432913 0 1 -39.120609,3.77961 104.93998,125.19911 80.888176 0 0 10.827246,2.31149 105.24595,124.83514 79.432913 0 0 59.781883,-14.56707 105.24595,124.83514 79.432913 0 0 8.59586,-4.54133 6.1161381,7.1897146 25.793669 0 1 -0.55656,0.14522 104.93998,125.19911 80.888176 0 1 -9.64179,4.32221 104.93998,125.19911 80.888176 0 1 -29.88603,8.54987 z"
       style="fill:#ac8c71;stroke-width:0.463936;fill-opacity:1"
       id="path93" />
    <path
       d="m 54.170854,224.91857 a 104.93998,125.19911 80.888176 0 0 7.889957,2.28048 105.24595,124.83514 79.432913 0 0 39.120609,-3.77961 104.93998,125.19911 80.888176 0 1 -48.737593,0.40462 92.652275,92.652275 0 0 0 1.727027,1.09451 z"
       style="fill:#b4977e;stroke-width:0.463936;fill-opacity:1"
       id="path92" />
    <path
       d="m 57.637309,226.95979 a 105.24595,124.83514 79.432913 0 0 4.423502,0.23926 104.93998,125.19911 80.888176 0 1 -7.889957,-2.28048 92.652275,92.652275 0 0 0 3.466455,2.04122 z"
       style="fill:#a58365;stroke-width:0.463936"
       id="path96" />
    <path
       d="m 62.357951,229.42786 a 105.24595,124.83514 79.432913 0 0 10.530106,0.0827 104.93998,125.19911 80.888176 0 1 -10.827246,-2.31149 105.24595,124.83514 79.432913 0 1 -4.423502,-0.23926 92.652275,92.652275 0 0 0 4.720642,2.46807 z"
       style="fill:#b09278;stroke-width:0.463936;fill-opacity:1"
       id="path94" />
    <path
       d="m 75.826379,234.72624 a 105.24595,124.83514 79.432913 0 0 78.637581,-13.87099 105.24595,124.83514 79.432913 0 0 8.59534,-4.54132 6.1161381,7.1897146 25.793669 0 1 -0.55656,0.14521 104.93998,125.19911 80.888176 0 1 -9.64179,4.32222 104.93998,125.19911 80.888176 0 1 -79.972893,8.72918 105.24595,124.83514 79.432913 0 1 -10.530106,-0.0827 92.652275,92.652275 0 0 0 13.468428,5.29838 z"
       style="fill:#9c795b;stroke-width:0.463936;fill-opacity:1"
       id="path90" />
    <path
       d="m 34.542078,208.656 a 92.652275,92.652275 0 0 0 5.672522,5.68544 124.83514,105.24595 11.696511 0 0 50.287369,5.6441 124.83514,105.24595 11.696511 0 0 9.675381,-0.9462 6.1161381,7.1897146 48.057267 0 1 -0.569476,-0.0765 125.19911,104.93998 13.151774 0 1 -10.560596,0.34727 125.19911,104.93998 13.151774 0 1 -54.5052,-10.65413 z"
       style="fill:#a58365;stroke-width:0.463936"
       id="path95" />
    <path
       d="m 118.93744,114.70618 a 124.83514,105.24595 11.696511 0 0 1.2423,-0.0729 124.83514,105.24595 11.696511 0 0 9.67538,-0.94619 6.1161381,7.1897146 48.057267 0 1 -0.56999,-0.0765 125.19911,104.93998 13.151774 0 1 -10.56059,0.34675 125.19911,104.93998 13.151774 0 1 -7.44813,-0.4377 125.19911,104.93998 13.151774 0 0 7.66103,1.18649 z"
       style="fill:#a58365;stroke-width:0.463936"
       id="path43" />
    <path
       d="m 71.451453,105.98371 a 125.19911,104.93998 13.151774 0 1 -32.330327,-15.70705 156.02653,172.62012 18.826015 0 1 -5.580538,0.281637 156.85574,171.70756 18.886228 0 0 7.10396,6.300907 124.83514,105.24595 11.696511 0 0 62.841122,17.813896 124.83514,105.24595 11.696511 0 1 -32.034217,-8.68939 z"
       style="fill:#a58365;stroke-width:0.463936"
       id="path38" />
    <path
       d="m 30.81724,87.917114 a 156.85574,171.70756 18.886228 0 0 2.723348,2.641183 156.02653,172.62012 18.826015 0 0 5.580538,-0.281637 125.19911,104.93998 13.151774 0 1 -6.505546,-4.519104 92.652275,92.652275 0 0 0 -1.79834,2.159558 z"
       style="fill:#a58365;stroke-width:0.66425"
       id="path21" />
    <path
       d="m 32.61558,85.757556 a 125.19911,104.93998 13.151774 0 0 6.505546,4.519104 156.02653,172.62012 18.826015 0 0 2.944523,-0.234094 124.83514,105.24595 11.696511 0 1 -7.503934,-5.744352 156.85574,171.70756 18.886228 0 1 -0.65319,-0.01499 92.652275,92.652275 0 0 0 -1.292945,1.474328 z"
       style="fill:#a58365;stroke-width:0.66425"
       id="path20" />
    <path
       d="m 87.730562,78.305815 a 156.02653,172.62012 18.826015 0 1 -14.607377,1.717207 156.85574,171.70756 18.886228 0 1 -29.786812,4.190959 125.19911,104.93998 13.151774 0 0 6.558773,4.915979 156.02653,172.62012 18.826015 0 0 10.954887,-1.989026 124.32988,114.92395 13.583483 0 1 -2.054139,-0.767395 124.43406,114.82773 9.842656 0 1 -1.317232,-0.42323 7.8026672,6.129001 60.079611 0 0 0.266134,0.0155 124.32988,114.92395 13.583483 0 1 -1.62109,-0.649056 7.8000598,6.1310497 64.407149 0 0 0.569474,0.05788 124.43486,114.827 9.813042 0 0 3.648873,1.156518 124.53007,114.7392 6.139066 0 0 1.594218,0.366903 156.02653,172.62012 18.826015 0 0 25.794291,-8.59224 z"
       style="fill:#a58365;stroke-width:0.66425"
       id="path16" />
    <path
       d="m 97.362016,71.692782 a 156.85574,171.70756 18.886228 0 0 6.499344,-0.948263 156.02653,172.62012 18.826015 0 0 6.3376,-3.713468 156.02653,172.62012 18.826015 0 0 10.9213,-7.327718 7.9196716,11.382283 10.039381 0 1 -0.70694,0.234611 156.85574,171.70756 18.886228 0 1 -12.25041,6.973734 156.85574,171.70756 18.886228 0 1 -10.800894,4.781104 z"
       style="fill:#a58365;stroke-width:0.66425"
       id="path12" />
    <path
       d="m 166.40225,126.56127 a 124.32988,114.92395 38.740115 0 1 -11.79153,6.96391 156.02653,172.62012 18.826015 0 0 14.46268,-3.73775 124.53007,114.7392 31.295698 0 0 8.69508,-6.03271 92.652275,92.652275 0 0 0 0.0243,-0.24288 156.85574,171.70756 18.886228 0 1 -11.39052,3.04943 z"
       style="fill:#a58365;stroke-width:0.66425"
       id="path65" />
    <path
       d="m 24.972636,96.012227 a 156.02653,172.62012 18.826015 0 0 76.264074,38.703583 124.53007,114.7392 31.295698 0 0 24.96851,-4.55838 156.85574,171.70756 18.886228 0 1 -44.581778,-9.28936 124.83514,105.24595 11.696511 0 1 -55.042636,-27.273266 92.652275,92.652275 0 0 0 -1.60817,2.417423 z"
       style="fill:#b2957b;stroke-width:0.66425;fill-opacity:1"
       id="path46" />
    <path
       d="m 40.644548,96.859204 a 124.83514,105.24595 11.696511 0 1 -3.619935,-2.066024 125.19911,104.93998 13.151774 0 0 8.901266,6.25698 156.85574,171.70756 18.886228 0 1 -5.281331,-4.190956 z"
       style="fill:#a58365;stroke-width:0.66425"
       id="path41" />
    <path
       d="m 29.957861,88.997668 a 125.19911,104.93998 13.151774 0 0 1.857768,1.604037 156.02653,172.62012 18.826015 0 0 1.724959,-0.04341 156.85574,171.70756 18.886228 0 1 -2.723348,-2.641183 92.652275,92.652275 0 0 0 -0.859379,1.080554 z"
       style="fill:#a58365;stroke-width:0.66425"
       id="path34" />
    <path
       d="m 40.644548,96.859204 a 156.85574,171.70756 18.886228 0 1 -7.10396,-6.300907 156.02653,172.62012 18.826015 0 1 -1.724959,0.04341 125.19911,104.93998 13.151774 0 0 5.208984,4.191475 124.83514,105.24595 11.696511 0 0 3.619935,2.066024 z"
       style="fill:#a58365;stroke-width:0.66425"
       id="path32" />
    <path
       d="m 45.925879,101.05016 a 156.85574,171.70756 18.886228 0 0 35.697563,19.81791 124.83514,105.24595 11.696511 0 0 44.750238,4.14187 124.83514,105.24595 11.696511 0 0 9.67486,-0.94619 6.1161381,7.1897146 48.057267 0 1 -0.56947,-0.0765 125.19911,104.93998 13.151774 0 1 -10.5606,0.34727 125.19911,104.93998 13.151774 0 1 -78.992591,-23.28437 z"
       style="fill:#a58365;stroke-width:0.463936"
       id="path42" />
    <path
       d="m 28.709359,90.629093 a 156.02653,172.62012 18.826015 0 0 1.689819,-0.0067 124.83514,105.24595 11.696511 0 1 -1.114144,-0.754475 92.652275,92.652275 0 0 0 -0.575675,0.761193 z"
       style="fill:#a58365;stroke-width:0.463936"
       id="path37" />
    <path
       d="m 26.580806,93.594804 a 124.83514,105.24595 11.696511 0 0 55.042636,27.273266 156.85574,171.70756 18.886228 0 1 -35.697563,-19.81791 125.19911,104.93998 13.151774 0 1 -8.901266,-6.25698 124.83514,105.24595 11.696511 0 1 -6.625435,-4.170805 156.02653,172.62012 18.826015 0 1 -1.689819,0.0067 92.652275,92.652275 0 0 0 -2.128553,2.965711 z"
       style="fill:#a58365;stroke-width:0.463936"
       id="path36" />
    <path
       d="m 29.285034,89.8679 a 124.83514,105.24595 11.696511 0 0 1.114144,0.754475 156.02653,172.62012 18.826015 0 0 1.416451,-0.02067 125.19911,104.93998 13.151774 0 1 -1.857768,-1.604037 92.652275,92.652275 0 0 0 -0.672827,0.870232 z"
       style="fill:#a58365;stroke-width:0.463936"
       id="path35" />
    <path
       d="m 37.024613,94.79318 a 125.19911,104.93998 13.151774 0 1 -5.208984,-4.191475 156.02653,172.62012 18.826015 0 1 -1.416451,0.02067 124.83514,105.24595 11.696511 0 0 6.625435,4.170805 z"
       style="fill:#a58365;stroke-width:0.463936"
       id="path33" />
    <path
       d="m 103.48567,114.6731 a 124.83514,105.24595 11.696511 0 0 31.41669,1.48932 124.83514,105.24595 11.696511 0 0 9.67538,-0.9462 6.1161381,7.1897146 48.057267 0 1 -0.56999,-0.0765 125.19911,104.93998 13.151774 0 1 -10.5606,0.34727 125.19911,104.93998 13.151774 0 1 -14.50971,-0.78083 124.83514,105.24595 11.696511 0 1 -15.45177,-0.0331 z"
       style="fill:#a58365;stroke-width:0.463936"
       id="path45" />
    <path
       d="m 71.451453,105.98371 a 124.83514,105.24595 11.696511 0 0 32.034217,8.68939 124.83514,105.24595 11.696511 0 0 15.45177,0.0331 125.19911,104.93998 13.151774 0 1 -7.66103,-1.18649 125.19911,104.93998 13.151774 0 1 -39.824957,-7.53598 z"
       style="fill:#a58365;stroke-width:0.463936"
       id="path44" />
    <path
       d="m 49.895146,89.12996 a 156.02653,172.62012 18.826015 0 1 -7.829497,0.912606 124.83514,105.24595 11.696511 0 0 29.385804,15.941144 125.19911,104.93998 13.151774 0 0 39.824957,7.53598 125.19911,104.93998 13.151774 0 1 -61.381264,-24.38973 z"
       style="fill:#a58365;stroke-width:0.463936"
       id="path40" />
    <path
       d="m 34.179826,83.981954 a 124.83514,105.24595 11.696511 0 0 0.381889,0.31626 156.85574,171.70756 18.886228 0 0 8.774658,-0.08423 125.19911,104.93998 13.151774 0 1 -5.185213,-4.35994 92.652275,92.652275 0 0 0 -3.971334,4.127913 z"
       style="fill:#a58365;stroke-width:0.463936"
       id="path19" />
    <path
       d="m 49.895146,89.12996 a 125.19911,104.93998 13.151774 0 1 -6.558773,-4.915979 156.85574,171.70756 18.886228 0 1 -8.774658,0.08423 124.83514,105.24595 11.696511 0 0 7.503934,5.744352 156.02653,172.62012 18.826015 0 0 7.829497,-0.912606 z"
       style="fill:#a58365;stroke-width:0.463936"
       id="path18" />
    <path
       d="m 91.293652,54.198242 a 92.652275,92.652275 0 0 0 -7.065718,1.171505 124.83514,105.24595 11.696511 0 0 38.904606,2.80293 124.83514,105.24595 11.696511 0 0 6.99492,-0.615983 92.652275,92.652275 0 0 0 -0.7736,-0.234095 125.19911,104.93998 13.151774 0 1 -7.67653,0.174667 125.19911,104.93998 13.151774 0 1 -30.383678,-3.299024 z"
       style="fill:#bf926b;stroke-width:0.463936;fill-opacity:1"
       id="path10" />
    <path
       d="m 39.911776,78.177657 a 156.02653,172.62012 18.826015 0 0 33.211409,1.845365 156.85574,171.70756 18.886228 0 0 24.238831,-8.33024 156.85574,171.70756 18.886228 0 1 -49.731848,0.06976 92.652275,92.652275 0 0 0 -7.718392,6.415112 z"
       style="fill:#a58365;stroke-width:0.66425"
       id="path15" />
    <path
       d="m 97.362016,71.692782 a 156.85574,171.70756 18.886228 0 1 -24.238831,8.33024 156.02653,172.62012 18.826015 0 0 14.607377,-1.717207 156.02653,172.62012 18.826015 0 0 16.130798,-7.561296 156.85574,171.70756 18.886228 0 1 -6.499344,0.948263 z"
       style="fill:#a58365;stroke-width:0.66425"
       id="path14" />
    <path
       d="M 136.77305,59.879032 A 156.85574,171.70756 18.886228 0 1 103.86136,70.744519 156.02653,172.62012 18.826015 0 1 87.730562,78.305815 156.02653,172.62012 18.826015 0 0 138.77448,60.691903 92.652275,92.652275 0 0 0 136.77305,59.879032 Z"
       style="fill:#a58365;stroke-width:0.66425"
       id="path13" />
    <path
       d="m 16.347323,113.07475 a 124.32988,114.92395 38.740115 0 0 13.251387,10.234 124.43406,114.82773 34.999288 0 1 -0.382922,-0.30954 124.43406,114.82773 34.999288 0 1 -7.418669,-6.48332 7.8026672,6.129001 85.236243 0 0 0.510563,0.25889 124.53007,114.7392 31.295698 0 0 8.481136,6.43889 124.53007,114.7392 31.295698 0 0 27.961601,14.99081 124.32988,114.92395 38.740115 0 0 95.860301,-4.6793 156.02653,172.62012 18.826015 0 1 -26.90172,3.06338 124.43406,114.82773 34.999288 0 1 -111.104329,-24.17992 92.652275,92.652275 0 0 0 -0.257348,0.66611 z"
       style="fill:#a58365;stroke-width:0.483815"
       id="path59" />
    <path
       d="m 146.89491,129.67942 a 156.85574,171.70756 18.886228 0 0 19.50734,-3.11815 124.32988,114.92395 38.740115 0 0 11.79514,-9.27075 92.652275,92.652275 0 0 0 0.0455,-2.9006 92.652275,92.652275 0 0 0 -0.22273,-6.41977 124.43406,114.82773 34.999288 0 1 -31.12523,21.70927 z"
       style="fill:#b19379;stroke-width:0.483815;fill-opacity:1"
       id="path58" />
    <path
       d="m 184.05492,101.4057 a 124.43406,114.82773 34.999288 0 1 -6.03478,6.56445 92.652275,92.652275 0 0 1 0.22273,6.41977 92.652275,92.652275 0 0 1 -0.0455,2.9006 124.32988,114.92395 38.740115 0 0 5.2617,-5.10719 124.32988,114.92395 38.740115 0 0 3.86694,-4.2447 92.652275,92.652275 0 0 0 -3.27111,-6.53293 z"
       style="fill:#ae8f74;stroke-width:0.483815;fill-opacity:1"
       id="path57" />
    <path
       d="m 146.89491,129.67942 a 124.43406,114.82773 34.999288 0 1 -19.18591,6.90914 156.02653,172.62012 18.826015 0 0 26.90172,-3.06338 124.32988,114.92395 38.740115 0 0 11.79153,-6.96391 156.85574,171.70756 18.886228 0 1 -19.50734,3.11815 z"
       style="fill:#b09378;stroke-width:0.483815;fill-opacity:1"
       id="path51" />
    <path
       d="m 183.95725,101.22896 a 124.43486,114.827 34.969674 0 1 -5.95726,6.45749 92.652275,92.652275 0 0 1 0.0202,0.2837 124.43406,114.82773 34.999288 0 0 6.03478,-6.56445 92.652275,92.652275 0 0 0 -0.0977,-0.17674 z"
       style="fill:#a58365;stroke-width:0.483815"
       id="path56" />
    <path
       d="m 180.2045,95.037093 a 124.53007,114.7392 31.295698 0 1 -3.283,3.761528 92.652275,92.652275 0 0 1 1.07849,8.887829 124.43486,114.827 34.969674 0 0 5.95726,-6.45749 92.652275,92.652275 0 0 0 -3.75275,-6.191867 z"
       style="fill:#a58365;stroke-width:0.483815"
       id="path55" />
    <path
       d="m 16.726628,112.09807 a 124.43486,114.827 34.969674 0 0 109.517342,24.51426 156.02653,172.62012 18.826015 0 1 -25.00726,-1.89652 124.53007,114.7392 31.295698 0 1 -84.293558,-23.16138 92.652275,92.652275 0 0 0 -0.216524,0.54364 z"
       style="fill:#a58365;stroke-width:0.483815"
       id="path53" />
    <path
       d="m 16.604671,112.40864 a 124.43406,114.82773 34.999288 0 0 111.104329,24.17992 156.02653,172.62012 18.826015 0 1 -1.46503,0.0238 124.43486,114.827 34.969674 0 1 -109.517342,-24.51426 92.652275,92.652275 0 0 0 -0.121957,0.31057 z"
       style="fill:#a58365;stroke-width:0.483815"
       id="path52" />
    <path
       d="m 145.98024,129.76159 a 156.85574,171.70756 18.886228 0 0 0.91467,-0.0822 124.43406,114.82773 34.999288 0 0 31.12523,-21.70927 92.652275,92.652275 0 0 0 -0.0202,-0.2837 124.43486,114.827 34.969674 0 1 -32.01975,22.07514 z"
       style="fill:#a58365;stroke-width:0.483815"
       id="path50" />
    <path
       d="m 145.98024,129.76159 a 124.43486,114.827 34.969674 0 1 -19.73627,6.85074 156.02653,172.62012 18.826015 0 0 1.46503,-0.0238 124.43406,114.82773 34.999288 0 0 19.18591,-6.90914 156.85574,171.70756 18.886228 0 1 -0.91467,0.0822 z"
       style="fill:#a58365;stroke-width:0.483815"
       id="path49" />
    <path
       d="m 126.20522,130.15743 a 124.53007,114.7392 31.295698 0 1 -24.96851,4.55838 156.02653,172.62012 18.826015 0 0 25.00726,1.89652 124.43486,114.827 34.969674 0 0 19.73627,-6.85074 156.85574,171.70756 18.886228 0 1 -19.77502,0.39584 z"
       style="fill:#ad8e73;stroke-width:0.483815;fill-opacity:1"
       id="path48" />
    <path
       d="m 126.20522,130.15743 a 156.85574,171.70756 18.886228 0 0 19.77502,-0.39584 124.43486,114.827 34.969674 0 0 32.01975,-22.07514 92.652275,92.652275 0 0 0 -1.07849,-8.887829 124.53007,114.7392 31.295698 0 1 -50.71628,31.358809 z"
       style="fill:#a9896c;stroke-width:0.483815;fill-opacity:1"
       id="path47" />
    <path
       d="m 163.28306,75.840849 a 124.43406,114.82773 9.842656 0 1 -96.333141,12.82454 124.43406,114.82773 9.842656 0 1 -5.833753,-1.583366 156.02653,172.62012 18.826015 0 1 -0.266133,0.05891 124.32988,114.92395 13.583483 0 0 4.519104,1.555978 124.32988,114.92395 13.583483 0 0 102.373083,-8.76484 92.652275,92.652275 0 0 0 -4.45916,-4.091223 z"
       style="fill:#a58365;stroke-width:0.483815"
       id="path29" />
    <path
       d="m 61.116166,87.082023 a 124.43406,114.82773 9.842656 0 1 -2.320272,-0.708484 124.32988,114.92395 13.583483 0 0 2.054139,0.767395 156.02653,172.62012 18.826015 0 0 0.266133,-0.05891 z"
       style="fill:#a58365;stroke-width:0.483815"
       id="path27" />
    <path
       d="m 57.744796,85.965812 a 7.8026672,6.129001 60.079611 0 0 0.306441,0.0021 124.53007,114.7392 6.139066 0 0 2.290816,0.563273 124.43486,114.827 9.813042 0 1 -3.648873,-1.156518 7.8000598,6.1310497 64.407149 0 1 -0.569474,-0.05788 124.32988,114.92395 13.583483 0 0 1.62109,0.649056 z"
       style="fill:#a58365;stroke-width:0.483815"
       id="path24" />
    <path
       d="m 158.36966,71.902071 a 124.53007,114.7392 6.139066 0 1 -89.905105,16.288928 124.53007,114.7392 6.139066 0 1 -6.528284,-1.292944 156.02653,172.62012 18.826015 0 1 -0.198954,0.04496 124.43486,114.827 9.813042 0 0 5.175911,1.387512 124.43486,114.827 9.813042 0 0 96.079922,-12.737724 92.652275,92.652275 0 0 0 -4.62349,-3.690731 z"
       style="fill:#a58365;stroke-width:0.483815"
       id="path31" />
    <path
       d="m 162.99315,75.592802 a 124.43486,114.827 9.813042 0 1 -96.079922,12.737724 124.43486,114.827 9.813042 0 1 -5.175911,-1.387512 156.02653,172.62012 18.826015 0 1 -0.621151,0.139009 124.43406,114.82773 9.842656 0 0 5.833753,1.583366 124.43406,114.82773 9.842656 0 0 96.333141,-12.82454 92.652275,92.652275 0 0 0 -0.28991,-0.248047 z"
       style="fill:#a58365;stroke-width:0.483815"
       id="path30" />
    <path
       d="m 61.936271,86.898055 a 124.53007,114.7392 6.139066 0 1 -1.594218,-0.366903 124.43486,114.827 9.813042 0 0 1.395264,0.411862 156.02653,172.62012 18.826015 0 0 0.198954,-0.04496 z"
       style="fill:#a58365;stroke-width:0.483815"
       id="path28" />
    <path
       d="m 61.737317,86.943014 a 124.43486,114.827 9.813042 0 1 -1.395264,-0.411862 124.53007,114.7392 6.139066 0 1 -2.290816,-0.563273 7.8026672,6.129001 60.079611 0 1 -0.306441,-0.0021 124.32988,114.92395 13.583483 0 0 1.051098,0.407727 124.43406,114.82773 9.842656 0 0 2.320272,0.708484 156.02653,172.62012 18.826015 0 0 0.621151,-0.139009 z"
       style="fill:#a58365;stroke-width:0.483815"
       id="path26" />
    <path
       d="m 58.795894,86.373539 a 124.32988,114.92395 13.583483 0 1 -1.051098,-0.407727 7.8026672,6.129001 60.079611 0 1 -0.266134,-0.0155 124.43406,114.82773 9.842656 0 0 1.317232,0.42323 z"
       style="fill:#a58365;stroke-width:0.483815"
       id="path25" />
    <path
       d="m 191.98828,120.64742 a 156.02653,172.62012 18.826015 0 1 -14.59962,6.29677 92.652275,92.652275 0 0 1 -1.19011,6.80268 124.43406,114.82773 34.999288 0 0 15.85691,-12.86278 92.652275,92.652275 0 0 0 -0.0672,-0.23667 z"
       style="fill:#a58365;stroke-width:0.483815"
       id="path71" />
    <path
       d="m 191.3847,118.62325 a 156.85574,171.70756 18.886228 0 1 -13.10773,4.73821 124.53007,114.7392 31.295698 0 1 -0.50849,0.39326 92.652275,92.652275 0 0 1 -0.37982,3.18947 156.02653,172.62012 18.826015 0 0 14.59962,-6.29677 92.652275,92.652275 0 0 0 -0.60358,-2.02417 z"
       style="fill:#a58365;stroke-width:0.483815"
       id="path70" />
    <path
       d="m 189.5383,113.26647 a 124.53007,114.7392 31.295698 0 1 -11.26133,10.09499 156.85574,171.70756 18.886228 0 0 13.10773,-4.73821 92.652275,92.652275 0 0 0 -1.8464,-5.35678 z"
       style="fill:#a58365;stroke-width:0.483815"
       id="path69" />
    <path
       d="m 177.76848,123.75472 a 124.53007,114.7392 31.295698 0 1 -8.69508,6.03271 156.02653,172.62012 18.826015 0 0 8.31526,-2.84324 92.652275,92.652275 0 0 0 0.37982,-3.18947 z"
       style="fill:#a58365;stroke-width:0.483815"
       id="path67" />
    <path
       d="m 177.38866,126.94419 a 156.02653,172.62012 18.826015 0 1 -8.31526,2.84324 124.53007,114.7392 31.295698 0 1 -110.322981,8.41705 124.32988,114.92395 38.740115 0 1 -29.151709,-14.89573 124.43406,114.82773 34.999288 0 0 146.59984,10.43812 92.652275,92.652275 0 0 0 1.19011,-6.80268 z"
       style="fill:#9e7b5c;stroke-width:0.483815;fill-opacity:1"
       id="path61" />
    <path
       d="m 29.59871,123.30875 a 124.32988,114.92395 38.740115 0 0 29.151709,14.89573 124.53007,114.7392 31.295698 0 1 -27.961601,-14.99081 124.53007,114.7392 31.295698 0 1 -8.481136,-6.43889 7.8026672,6.129001 85.236243 0 1 -0.510563,-0.25889 124.43406,114.82773 34.999288 0 0 7.418669,6.48332 124.43406,114.82773 34.999288 0 0 0.382922,0.30954 z"
       style="fill:#a58365;stroke-width:0.483815"
       id="path60" />
    <path
       d="m 16.324068,146.45256 a 125.19911,104.93998 13.814811 0 0 0.447001,0.13746 124.53007,114.7392 31.295698 0 1 -0.533817,-0.43718 7.8026672,6.129001 85.236243 0 1 -0.51108,-0.25942 124.43406,114.82773 34.999288 0 0 0.597896,0.55914 z"
       style="fill:#a58365;stroke-width:0.483815"
       id="path132" />
    <path
       d="m 32.579407,157.68857 a 124.53007,114.7392 31.295698 0 1 -7.861536,-5.09685 124.53007,114.7392 31.295698 0 1 -2.288749,-1.63504 124.83514,105.24595 12.359548 0 1 -1.33997,-0.28164 124.43406,114.82773 34.999288 0 0 2.056205,1.70222 124.43406,114.82773 34.999288 0 0 16.85892,11.66957 114.44205,123.15972 54.722764 0 1 -7.42487,-6.35826 z"
       style="fill:#a58365;stroke-width:0.483815"
       id="path124" />
    <path
       d="m 16.324068,146.45256 a 124.43406,114.82773 34.999288 0 0 4.765084,4.22248 124.83514,105.24595 12.359548 0 0 1.33997,0.28164 124.53007,114.7392 31.295698 0 1 -5.658053,-4.36666 125.19911,104.93998 13.814811 0 1 -0.447001,-0.13746 z"
       style="fill:#ac8c71;stroke-width:0.483815;fill-opacity:1"
       id="path122" />
    <path
       d="m 32.579407,157.68857 a 114.44205,123.15972 54.722764 0 0 7.42487,6.35826 124.43406,114.82773 34.999288 0 0 120.580753,4.75217 92.652275,92.652275 0 0 0 8.10803,-13.43949 124.53007,114.7392 31.295698 0 1 -136.113653,2.32906 z"
       style="fill:#a58365;stroke-width:0.483815"
       id="path103" />
    <path
       d="m 194.10701,129.78226 a 124.53007,114.7392 31.295698 0 1 -0.54208,0.76429 124.53007,114.7392 31.295698 0 1 -24.87187,24.81296 92.652275,92.652275 0 0 1 -8.10803,13.43949 124.43406,114.82773 34.999288 0 0 32.62126,-26.38185 124.43406,114.82773 34.999288 0 0 2.13424,-2.651 92.652275,92.652275 0 0 0 -1.23352,-9.98389 z"
       style="fill:#a58365;stroke-width:0.483815"
       id="path73" />
    <path
       d="m 100.29259,192.75051 a 124.43406,114.82773 34.999288 0 0 3.03237,0.45372 114.44205,123.15972 50.585318 0 0 39.14593,-5.67666 92.652275,92.652275 0 0 0 0.8108,-0.63769 114.44205,123.15972 50.61816 0 1 -42.9891,5.86063 z"
       style="fill:#a58365;stroke-width:0.483815"
       id="path112" />
    <path
       d="m 142.47089,187.52757 a 114.44205,123.15972 50.585318 0 1 -39.14593,5.67666 124.43406,114.82773 34.999288 0 0 30.18575,0.48369 92.652275,92.652275 0 0 0 8.96018,-6.16035 z"
       style="fill:#a78669;stroke-width:0.483815;fill-opacity:1"
       id="path111" />
    <path
       d="m 100.29259,192.75051 a 114.44205,123.15972 50.61816 0 0 42.9891,-5.86063 92.652275,92.652275 0 0 0 2.06964,-1.69653 124.53007,114.7392 31.295698 0 1 -34.82371,3.68504 105.24595,124.83514 79.432913 0 1 -23.517427,0.99943 124.43406,114.82773 34.999288 0 0 13.282397,2.87269 z"
       style="fill:#a8876a;stroke-width:0.483815;fill-opacity:1"
       id="path110" />
    <path
       d="m 87.010193,189.87782 a 105.24595,124.83514 79.432913 0 0 23.517427,-0.99943 124.53007,114.7392 31.295698 0 1 -25.544694,-3.50314 104.93998,125.19911 80.888176 0 1 -19.110461,-3.22875 124.43406,114.82773 34.999288 0 0 21.137728,7.73132 z"
       style="fill:#a58365;stroke-width:0.483815"
       id="path105" />
    <path
       d="m 61.421057,177.04139 a 124.53007,114.7392 31.295698 0 1 -22.000724,-12.19667 124.53007,114.7392 31.295698 0 1 -8.480619,-6.43889 7.8026672,6.129001 85.236243 0 1 -0.51108,-0.25941 124.43406,114.82773 34.999288 0 0 7.419185,6.48384 124.43406,114.82773 34.999288 0 0 28.024646,17.51624 104.93998,125.19911 80.888176 0 0 19.110461,3.22875 124.53007,114.7392 31.295698 0 1 -8.880078,-2.73058 114.44205,123.15972 54.722764 0 1 -2.098063,-0.64493 124.53007,114.7392 31.295698 0 1 -10.395231,-3.97185 114.44205,123.15972 54.722764 0 1 -2.188497,-0.9865 z"
       style="fill:#a58365;stroke-width:0.483815"
       id="path102" />
    <path
       d="m 143.28169,186.88988 a 92.652275,92.652275 0 0 1 -0.8108,0.63769 114.44205,123.15972 50.585318 0 0 20.39824,-8.31887 124.53007,114.7392 31.295698 0 1 -5.00848,2.03398 114.44205,123.15972 50.61816 0 1 -14.57896,5.6472 z"
       style="fill:#a58365;stroke-width:0.483815"
       id="path89" />
    <path
       d="m 143.28169,186.88988 a 114.44205,123.15972 50.61816 0 0 14.57896,-5.6472 124.53007,114.7392 31.295698 0 1 -12.50932,3.95067 92.652275,92.652275 0 0 1 -2.06964,1.69653 z"
       style="fill:#a58365;stroke-width:0.483815"
       id="path88" />
    <path
       d="m 180.76468,169.43565 a 124.53007,114.7392 31.295698 0 1 -17.89555,9.77305 114.44205,123.15972 50.585318 0 1 -20.39824,8.31887 92.652275,92.652275 0 0 1 -8.96018,6.16035 124.43406,114.82773 34.999288 0 0 2.2562,-0.26303 114.44205,123.15972 46.480714 0 0 44.99777,-23.98924 z"
       style="fill:#ab8c70;stroke-width:0.483815;fill-opacity:1"
       id="path85" />
    <path
       d="m 180.76468,169.43565 a 114.44205,123.15972 46.480714 0 1 -44.99777,23.98924 124.43406,114.82773 34.999288 0 0 36.56572,-10.86704 124.53007,114.7392 4.9187016 0 0 22.15731,-24.03988 124.53007,114.7392 31.295698 0 1 -13.72526,10.91768 z"
       style="fill:#aa8b6e;stroke-width:0.483815;fill-opacity:1"
       id="path79" />
    <path
       d="m 192.48437,169.78964 a 124.43406,114.82773 34.999288 0 1 -20.15174,12.76821 124.53007,114.7392 4.9187016 0 1 -101.674927,26.9291 124.53007,114.7392 4.9187016 0 1 -10.458277,-2.00091 7.8026672,6.129001 58.859247 0 1 -0.572575,-0.005 124.43406,114.82773 8.6222916 0 0 9.527067,2.51302 124.43406,114.82773 8.6222916 0 0 122.176522,-36.20399 92.652275,92.652275 0 0 0 1.15393,-4.00027 z"
       style="fill:#a58365;stroke-width:0.483815"
       id="path84" />
    <path
       d="m 194.78243,158.08906 a 124.53007,114.7392 4.9187016 0 1 -0.29249,0.42891 124.53007,114.7392 31.295698 0 0 0.26923,-0.25373 92.652275,92.652275 0 0 0 0.0233,-0.17518 z"
       style="fill:#a58365;stroke-width:0.483815"
       id="path81" />
    <path
       d="m 194.75917,158.26424 a 124.53007,114.7392 31.295698 0 1 -0.26923,0.25373 124.53007,114.7392 4.9187016 0 1 -22.15731,24.03988 124.43406,114.82773 34.999288 0 0 20.15174,-12.76821 92.652275,92.652275 0 0 0 2.2748,-11.5254 z"
       style="fill:#a58365;stroke-width:0.483815"
       id="path80" />
  </g>
</svg>
