<?xml version="1.0" encoding="UTF-8" standalone="no"?>
<!-- Created with Inkscape (http://www.inkscape.org/) -->

<svg
   width="168.82536mm"
   height="125.24534mm"
   viewBox="0 0 168.82536 125.24534"
   version="1.1"
   id="svg1"
   inkscape:version="1.4.3 (fcd0343856, 2026-01-01)"
   sodipodi:docname="alien4_face.svg"
   xmlns:inkscape="http://www.inkscape.org/namespaces/inkscape"
   xmlns:sodipodi="http://sodipodi.sourceforge.net/DTD/sodipodi-0.dtd"
   xmlns="http://www.w3.org/2000/svg"
   xmlns:svg="http://www.w3.org/2000/svg">
  <sodipodi:namedview
     id="namedview1"
     pagecolor="#ffffff"
     bordercolor="#000000"
     borderopacity="0.25"
     inkscape:showpageshadow="2"
     inkscape:pageopacity="0.0"
     inkscape:pagecheckerboard="0"
     inkscape:deskcolor="#d1d1d1"
     inkscape:document-units="mm"
     inkscape:zoom="0.72248176"
     inkscape:cx="477.52071"
     inkscape:cy="440.84158"
     inkscape:window-width="1850"
     inkscape:window-height="1016"
     inkscape:window-x="70"
     inkscape:window-y="27"
     inkscape:window-maximized="1"
     inkscape:current-layer="layer1" />
  <defs
     id="defs1" />
  <g
     inkscape:label="Layer 1"
     inkscape:groupmode="layer"
     id="layer1"
     transform="translate(-10.620024,-31.494452)">
    <path
       d="m 68.056828,85.341044 c 0.586228,-0.439555 1.167438,-0.91387 1.744079,-1.426269 C 70.159167,73.136655 52.81842,64.128539 44.166296,54.251469 38.237049,54.112204 28.39999,60.811808 19.122864,66.53134 c -2.782416,2.978326 -5.544245,5.960053 -8.50284,8.909016 10.964858,-5.882706 24.724354,-16.655827 32.226973,-16.479614 7.759344,8.857902 22.507332,17.016716 25.209831,26.380302 z"
       style="fill:#6c7ca9;stroke-width:0.264583"
       id="path6" />
    <path
       d="m 172.40601,59.486808 c -8.80648,1.52755 -17.77617,3.952037 -24.96746,-3.403926 -0.37096,1.644156 -0.75974,3.265836 -1.18288,4.846215 9.48157,9.50747 22.01426,2.235036 33.18971,2.426209 -2.32804,-1.240329 -4.68234,-2.55087 -7.03937,-3.868498 z"
       style="fill:#6c7ca9;stroke-width:0.264583"
       id="path5" />
    <path
       d="m 145.32963,64.121667 c -2.74973,8.711821 -7.00029,15.589827 -15.83573,16.863571 0.36384,1.478199 0.77963,2.858081 1.24179,4.1491 8.50968,-2.549075 12.10547,-11.104349 14.59394,-21.012671 z"
       style="fill:#6c7ca9;stroke-width:0.264583"
       id="path4" />
    <path
       d="m 157.98054,150.4363 c -2.95957,-11.67565 0.27132,-23.35117 -11.64064,-35.02681 -9.22029,-7.32555 -15.0444,-0.21727 -27.8324,-22.705588 -12.94698,10.647358 -26.974942,13.366888 -42.847002,2.563668 -12.032596,1.73981 -24.343809,2.99175 -32.592843,11.3528 -0.813018,1.83195 -1.436699,3.94769 -1.936315,6.24974 0.19287,-0.533 0.397925,-1.04731 0.617016,-1.54099 8.249034,-8.36105 20.560759,-9.61298 32.593359,-11.352794 15.872056,10.803234 29.900015,8.084214 42.846995,-2.563151 12.788,22.488325 18.61212,15.379525 27.83241,22.705075 12.45422,12.20715 8.35524,24.41439 12.08505,36.62154 0.22937,-2.20463 0.5335,-4.28469 0.87437,-6.30349 z"
       style="fill:#6c7ca9;stroke-width:0.264583"
       id="path3" />
    <path
       d="m 140.46016,50.893534 c -3.31647,17.110628 -18.62394,21.139585 -29.13104,30.405896 -11.963006,-9.277439 -22.949363,-9.277431 -32.959227,0 C 71.318198,67.256624 65.522426,57.767864 45.777051,43.579769 34.032682,50.753677 26.504218,58.630262 19.122864,66.53134 28.39999,60.811808 38.237049,54.112204 44.166296,54.251469 c 8.652124,9.87707 25.992871,18.885186 25.634611,29.663306 -0.576641,0.512399 -1.157851,0.986714 -1.744079,1.426269 0.310946,1.077362 0.462264,2.170851 0.425297,3.283004 -11.824157,10.50687 -25.737414,4.954728 -38.726835,13.870992 1.006425,10.23753 4.650368,19.15638 8.249625,28.09751 0.651139,-6.49386 1.37423,-12.88017 3.126425,-17.72244 0.499616,-2.30205 1.123297,-4.41779 1.936315,-6.24974 8.249034,-8.36105 20.560247,-9.61299 32.592843,-11.3528 15.87206,10.80322 29.900022,8.08369 42.847002,-2.563668 12.788,22.488318 18.61211,15.380038 27.8324,22.705588 11.91196,11.67564 8.68107,23.35116 11.64064,35.02681 1.69118,-10.01617 4.28731,-18.52363 3.15381,-33.24759 -10.20285,-9.24381 -27.47631,-9.21842 -32.95923,-31.494716 0.90008,-0.129758 1.7524,-0.317567 2.56057,-0.559656 -0.46216,-1.291019 -0.87795,-2.670901 -1.24179,-4.1491 8.83544,-1.273744 13.086,-8.15175 15.83573,-16.863571 0.27517,-1.095628 0.53689,-2.207601 0.79013,-3.330029 0.0453,0.04629 0.0905,0.09194 0.13591,0.137459 0.42314,-1.580379 0.81192,-3.202059 1.18288,-4.846215 7.19129,7.355963 16.16098,4.931476 24.96746,3.403926 -10.98214,-6.139244 -22.02548,-12.441426 -30.76866,-12.610083 -0.31031,1.428496 -0.70634,2.763454 -1.17719,4.016809 z"
       style="fill:#7c8bb3;stroke-width:0.264583"
       id="path2" />
    <rect
       style="fill:#86a0b9;fill-opacity:0;stroke-width:0.264583"
       id="rect11"
       width="111.32922"
       height="112.42786"
       x="42.480888"
       y="31.494452" />
  </g>
</svg>
