<?xml version="1.0" encoding="UTF-8" standalone="no"?>
<!-- Created with Inkscape (http://www.inkscape.org/) -->

<svg
   width="109.40417mm"
   height="73.551582mm"
   viewBox="0 0 109.40417 73.551582"
   version="1.1"
   id="svg1"
   inkscape:version="1.4.3 (fcd0343856, 2026-01-01)"
   sodipodi:docname="alien2_face.svg"
   xmlns:inkscape="http://www.inkscape.org/namespaces/inkscape"
   xmlns:sodipodi="http://sodipodi.sourceforge.net/DTD/sodipodi-0.dtd"
   xmlns="http://www.w3.org/2000/svg"
   xmlns:svg="http://www.w3.org/2000/svg">
  <sodipodi:namedview
     id="namedview1"
     pagecolor="#ffffff"
     bordercolor="#000000"
     borderopacity="0.25"
     inkscape:showpageshadow="2"
     inkscape:pageopacity="0.0"
     inkscape:pagecheckerboard="0"
     inkscape:deskcolor="#d1d1d1"
     inkscape:document-units="mm"
     inkscape:zoom="1.0036368"
     inkscape:cx="196.28615"
     inkscape:cy="316.3495"
     inkscape:window-width="1850"
     inkscape:window-height="1016"
     inkscape:window-x="70"
     inkscape:window-y="27"
     inkscape:window-maximized="1"
     inkscape:current-layer="layer1" />
  <defs
     id="defs1" />
  <g
     inkscape:label="Layer 1"
     inkscape:groupmode="layer"
     id="layer1"
     transform="translate(-41.125653,-49.824866)">
    <path
       d="m 41.125655,49.824866 v 69.974544 c 5.170169,-2.5389 11.583683,-4.61417 11.609111,-9.20254 -0.0199,-0.0902 -0.03928,-0.18027 -0.05891,-0.27027 -0.269916,-1.23721 -0.513744,-2.44713 -0.731221,-3.63079 l -5.17e-4,-0.003 C 45.091661,69.392605 63.970775,58.43983 89.19869,58.369564 c 3.60389,-0.01004 7.337519,0.202152 11.14402,0.591178 9.63692,1.292311 16.92145,3.170761 22.41879,5.506124 24.78923,10.530917 13.23461,30.351069 17.13229,47.595024 4.2388,1.56924 7.75225,3.35914 10.63604,5.34076 V 49.824866 Z"
       style="fill:#86a0b9;fill-opacity:0;stroke-width:0.264583"
       id="path16" />
    <path
       d="m 51.944116,106.69323 -0.67386,-5.61826 c 26.79907,9.54044 52.979144,8.36707 79.834404,3.66231 -0.34645,-10.263484 -1.34651,-21.367293 -8.42274,-40.283333 l 0.0796,0.01292 C 117.26416,62.131503 109.97963,60.253053 100.34271,58.960742 96.536209,58.571716 92.80258,58.359526 89.19869,58.369564 63.970775,58.43983 45.091661,69.392605 51.944116,106.69323 Z M 96.314535,65.918457 A 24.90259,19.226263 0 0 1 113.9548,71.574443 24.90259,19.226263 0 0 1 121.21689,85.144674 24.90259,19.226263 0 0 1 96.314535,104.37089 24.90259,19.226263 0 0 1 75.251737,95.402445 24.90259,19.226263 0 0 1 71.411662,85.144674 24.90259,19.226263 0 0 1 96.314535,65.918457 Z"
       style="fill:#bda473;stroke-width:0.264583"
       id="path17" />
    <path
       d="m 144.37207,123.37645 c -2.85954,-3.7469 -7.13881,-6.73389 -11.07013,-10.5823 -26.8755,1.7002 -53.750585,5.88345 -80.626086,-2.46755 0.01963,0.09 0.03901,0.18003 0.05891,0.27027 -0.02543,4.58837 -6.438942,6.66364 -11.609111,9.20254 v 3.57704 z"
       style="fill:#b79b67;stroke-width:0.264583"
       id="path23" />
    <path
       d="m 150.52983,117.40265 c -2.88379,-1.98162 -6.39724,-3.77152 -10.63604,-5.34076 -3.89768,-17.243955 7.65694,-37.064107 -17.13229,-47.595024 l -0.0796,-0.01292 c 7.07623,18.91604 8.07629,30.019849 8.42274,40.283334 -26.85526,4.70476 -53.035334,5.87813 -79.834404,-3.66231 l 0.674377,5.62084 c 0.217477,1.18366 0.461305,2.39358 0.731221,3.63079 26.875501,8.351 53.750586,4.16775 80.626086,2.46755 3.93132,3.84841 8.21059,6.8354 11.07013,10.5823 h 6.15776 z"
       style="fill:#b2945d;stroke-width:0.264583"
       id="path22" />
    <path
       d="M 113.9548,71.574443 A 24.90259,19.226263 0 0 1 117.79488,81.831698 24.90259,19.226263 0 0 1 92.892521,101.05791 24.90259,19.226263 0 0 1 75.251737,95.402445 24.90259,19.226263 0 0 0 96.314535,104.37089 24.90259,19.226263 0 0 0 121.21689,85.144674 24.90259,19.226263 0 0 0 113.9548,71.574443 Z"
       style="fill:#d2d2d2;stroke-width:0.264583"
       id="path21" />
    <path
       d="M 96.314535,65.918457 A 24.90259,19.226263 0 0 0 71.411662,85.144674 24.90259,19.226263 0 0 0 75.251737,95.402445 24.90259,19.226263 0 0 0 92.892521,101.05791 24.90259,19.226263 0 0 0 117.79488,81.831698 24.90259,19.226263 0 0 0 113.9548,71.574443 24.90259,19.226263 0 0 0 96.314535,65.918457 Z m -1.282093,10.62054 a 8.2398272,8.2398272 0 0 1 8.239808,8.239808 8.2398272,8.2398272 0 0 1 -8.239808,8.239807 8.2398272,8.2398272 0 0 1 -8.239807,-8.239807 8.2398272,8.2398272 0 0 1 8.239807,-8.239808 z"
       style="fill:#ffffff;stroke-width:0.264583"
       id="path18" />
    <path
       d="m 95.032442,76.538997 a 8.2398272,8.2398272 0 0 0 -8.239807,8.239808 8.2398272,8.2398272 0 0 0 8.239807,8.239807 8.2398272,8.2398272 0 0 0 8.239808,-8.239807 8.2398272,8.2398272 0 0 0 -8.239808,-8.239808 z m -0.05994,5.852873 a 2.1972871,2.1972871 0 0 1 2.197281,2.197282 2.1972871,2.1972871 0 0 1 -2.197281,2.197282 2.1972871,2.1972871 0 0 1 -2.197282,-2.197282 2.1972871,2.1972871 0 0 1 2.197282,-2.197282 z"
       style="fill:#001cf1;stroke-width:0.264583"
       id="path19" />
    <path
       d="m 94.972498,82.39187 a 2.1972871,2.1972871 0 0 0 -2.197282,2.197282 2.1972871,2.1972871 0 0 0 2.197282,2.197282 2.1972871,2.1972871 0 0 0 2.197281,-2.197282 2.1972871,2.1972871 0 0 0 -2.197281,-2.197282 z"
       style="stroke-width:0.264583"
       id="path20" />
  </g>
</svg>
