<?xml version="1.0" encoding="UTF-8" standalone="no"?>
<!-- Created with Inkscape (http://www.inkscape.org/) -->

<svg
   width="210mm"
   height="297mm"
   viewBox="0 0 210 297"
   version="1.1"
   id="svg1"
   inkscape:version="1.4.3 (fcd0343856, 2026-01-01)"
   sodipodi:docname="alien1.svg"
   xmlns:inkscape="http://www.inkscape.org/namespaces/inkscape"
   xmlns:sodipodi="http://sodipodi.sourceforge.net/DTD/sodipodi-0.dtd"
   xmlns="http://www.w3.org/2000/svg"
   xmlns:svg="http://www.w3.org/2000/svg">
  <sodipodi:namedview
     id="namedview1"
     pagecolor="#ffffff"
     bordercolor="#000000"
     borderopacity="0.25"
     inkscape:showpageshadow="2"
     inkscape:pageopacity="0.0"
     inkscape:pagecheckerboard="0"
     inkscape:deskcolor="#d1d1d1"
     inkscape:document-units="mm"
     inkscape:zoom="1.0060384"
     inkscape:cx="364.79719"
     inkscape:cy="593.91368"
     inkscape:window-width="1850"
     inkscape:window-height="1016"
     inkscape:window-x="70"
     inkscape:window-y="27"
     inkscape:window-maximized="1"
     inkscape:current-layer="layer1" />
  <defs
     id="defs1" />
  <g
     inkscape:label="Layer 1"
     inkscape:groupmode="layer"
     id="layer1">
    <path
       style="fill:#70b65c;stroke-width:0.145244"
       d="M 100.86903,92.457736 C 97.875062,83.729929 92.080057,78.071554 82.340331,78.654478 c -15.703253,-13.317882 -11.288366,20.921068 -0.0025,2.511694 9.079802,-0.491244 12.58579,5.635694 16.417196,12.783807 z"
       id="path3"
       sodipodi:nodetypes="ccccc" />
    <path
       style="fill:#70b65c;stroke-width:0.145244"
       d="m 124.86928,92.457736 c 3.82704,-7.492516 9.49553,-10.772831 16.53905,-14.425025 16.4118,-16.206743 12.67637,15.196271 1.24353,2.362719 -7.9213,2.992283 -12.17918,6.664288 -16.16597,13.92761 z"
       id="path4"
       sodipodi:nodetypes="ccccc" />
    <path
       style="fill:#9460b4;fill-opacity:1;stroke-width:0.264583"
       d="m 114.13994,126.7637 c -21.859311,12.40272 -22.766017,41.76706 -31.296438,64.95983 24.948348,16.49223 45.925808,10.86096 66.011808,0.263 -7.3372,-23.55576 -8.92838,-49.57411 -34.71537,-65.22283 z"
       id="path26"
       sodipodi:nodetypes="cccc" />
  </g>
  <g
     inkscape:groupmode="layer"
     id="layer2"
     inkscape:label="Layer 2">
    <path
       d="m 132.80033,96.360072 a 29.049593,28.144935 0 0 1 4.7196,15.377738 29.049593,28.144935 0 0 1 -1.22182,8.07695 l 6.31586,0.0176 c 0.012,0.0308 0.0239,0.0615 0.0357,0.0922 a 29.049593,28.144935 0 0 0 0.10212,-2.35681 29.049593,28.144935 0 0 0 -9.95151,-21.20766 z"
       style="fill:#7cbc69;stroke-width:0.148621"
       id="path18" />
    <path
       d="m 113.70241,89.42267 c -16.043747,-6.4e-5 -29.049786,12.60095 -29.049717,28.14506 4e-6,0.71954 0.02849,1.43882 0.08539,2.15625 0.007,-0.017 0.01398,-0.034 0.02099,-0.0511 14.542386,1.91112 29.456347,4.89698 51.503577,0.14184 h 0.0352 c 0.81034,-2.62046 1.22203,-5.34139 1.2221,-8.07694 -6e-5,-5.46098 -1.63989,-10.80399 -4.7196,-15.377743 -5.29129,-4.472851 -12.07575,-6.937335 -19.09792,-6.937401 z"
       style="fill:#85c273;stroke-width:0.148621"
       id="path15"
       sodipodi:nodetypes="ssccccccss" />
    <path
       d="m 142.64972,119.8877 c -0.0119,-0.0262 -0.0237,-0.0524 -0.0357,-0.0787 l -6.31586,-0.015 a 29.049593,24.0241 0 0 1 -0.0238,0.0649 29.049593,24.0241 0 0 0 0,2.5e-4 c 2.45869,13.83663 -20.16906,20.16557 -38.505064,18.10496 a 29.049593,24.0241 0 0 0 15.933184,3.93607 29.049593,24.0241 0 0 0 28.94731,-22.01246 z"
       style="fill:#72b35e;fill-opacity:1;stroke-width:0.125949"
       id="path20" />
    <path
       d="m 142.64972,119.8877 a 29.049593,24.0241 0 0 1 -28.94731,22.01246 29.049593,24.0241 0 0 1 -15.933191,-3.93607 c -3.280017,-0.36861 -6.422712,-1.00576 -9.259892,-1.91634 16.488463,11.87141 63.985883,5.60057 54.140393,-16.16005 z"
       style="fill:#73b460;fill-opacity:1;stroke-width:0.125949"
       id="path19" />
    <path
       d="m 97.769219,137.96409 a 29.049593,24.0241 0 0 1 -8.396937,-6.96192 29.049593,24.0241 0 0 1 -4.634201,-11.28567 c -3.468029,7.2367 -1.335782,12.65428 3.771246,16.33125 2.83718,0.91058 5.979875,1.54773 9.259892,1.91634 z"
       style="fill:#82bc71;fill-opacity:1;stroke-width:0.125949"
       id="path23" />
    <path
       d="m 97.769219,137.96409 c 18.336001,2.06061 40.963761,-4.26833 38.505061,-18.10496 a 29.049593,24.0241 0 0 1 -3.02744,5.58266 29.049593,24.0241 0 0 1 -24.77663,11.4818 29.049593,24.0241 0 0 1 -19.097928,-5.92142 29.049593,24.0241 0 0 0 8.396937,6.96192 z"
       style="fill:#82bc71;fill-opacity:1;stroke-width:0.125949"
       id="path21" />
    <path
       d="m 89.372282,131.00217 c 5.291332,3.81787 12.075788,5.92143 19.097928,5.92142 12.80234,2e-5 24.09543,-6.9311 27.80407,-17.06471 -0.004,-0.0216 -0.008,-0.0433 -0.0116,-0.0649 -21.36351,4.57754 -36.795592,1.8377 -51.503577,-0.12107 -0.007,0.0146 -0.01403,0.029 -0.02099,0.0436 0.373933,4.0241 1.967712,7.90543 4.634201,11.28568 z"
       style="fill:#82bc71;fill-opacity:1;stroke-width:0.125949"
       id="path22"
       sodipodi:nodetypes="scccccss" />
    <path
       style="fill:#000000;fill-opacity:1;stroke-width:0.18671"
       d="m 99.587735,119.95544 c 16.889915,-2.31487 -7.84384,-31.031261 -12.692728,-9.03637 0.705682,8.29234 7.543687,8.10239 12.692728,9.03637 z"
       id="path10"
       sodipodi:nodetypes="ccc" />
    <path
       style="fill:#000000;fill-opacity:1;stroke-width:0.182964"
       d="m 126.64751,119.70966 c -16.21896,-2.31487 7.53224,-31.031271 12.18851,-9.03638 -0.67765,8.29235 -7.24402,8.1024 -12.18851,9.03638 z"
       id="path10-3"
       sodipodi:nodetypes="ccc" />
    <path
       style="fill:#000000;fill-opacity:1;stroke-width:0.0954358"
       d="m 113.16068,117.46167 c -0.57411,1.38872 -1.21026,2.77744 -1.0629,4.16616 1.44423,0.71244 1.0629,-4.16616 1.0629,-4.16616 z"
       id="path11"
       sodipodi:nodetypes="ccc" />
    <path
       style="fill:#000000;fill-opacity:1;stroke-width:0.0844079"
       d="m 114.08681,117.53361 c 0.44909,1.38871 0.94672,2.77744 0.83144,4.16616 -1.12974,0.71244 -0.83144,-4.16616 -0.83144,-4.16616 z"
       id="path11-6"
       sodipodi:nodetypes="ccc" />
    <path
       style="fill:#000000;fill-opacity:1;stroke-width:0.145244"
       d="m 106.83111,125.829 c 4.12932,1.3304 8.39628,1.28798 13.55793,-0.27529 z"
       id="path25"
       sodipodi:nodetypes="ccc" />
  </g>
</svg>
