<?xml version="1.0" encoding="UTF-8" standalone="no"?>
<!-- Created with Inkscape (http://www.inkscape.org/) -->

<svg
   width="88.70208mm"
   height="94.342079mm"
   viewBox="0 0 88.70208 94.34208"
   version="1.1"
   id="svg1"
   inkscape:version="1.4.3 (fcd0343856, 2026-01-01)"
   sodipodi:docname="alien3_face.svg"
   xmlns:inkscape="http://www.inkscape.org/namespaces/inkscape"
   xmlns:sodipodi="http://sodipodi.sourceforge.net/DTD/sodipodi-0.dtd"
   xmlns="http://www.w3.org/2000/svg"
   xmlns:svg="http://www.w3.org/2000/svg">
  <sodipodi:namedview
     id="namedview1"
     pagecolor="#ffffff"
     bordercolor="#000000"
     borderopacity="0.25"
     inkscape:showpageshadow="2"
     inkscape:pageopacity="0.0"
     inkscape:pagecheckerboard="0"
     inkscape:deskcolor="#d1d1d1"
     inkscape:document-units="mm"
     inkscape:zoom="0.64436563"
     inkscape:cx="327.45384"
     inkscape:cy="204.07668"
     inkscape:window-width="1850"
     inkscape:window-height="1016"
     inkscape:window-x="70"
     inkscape:window-y="27"
     inkscape:window-maximized="1"
     inkscape:current-layer="layer1" />
  <defs
     id="defs1" />
  <g
     inkscape:label="Layer 1"
     inkscape:groupmode="layer"
     id="layer1"
     transform="translate(-70.967244,-17.344684)">
    <path
       d="m 128.83813,111.38858 c 10.13899,-4.68833 17.94233,-7.82019 30.83119,-14.341756 -7.37561,-4.75027 -13.9475,-8.867354 -19.71869,-12.374955 h -0.42943 c 5.76762,3.505637 12.33441,7.619974 19.70371,12.36617 -12.48536,6.317401 -20.19904,9.453781 -29.88604,13.905611 -0.23799,0.14884 -0.47096,0.29729 -0.69814,0.44493 z"
       style="fill:#9a5e97;stroke-width:0.264583"
       id="path88" />
    <path
       d="m 117.66517,72.27676 c 5.16796,2.578792 12.44882,6.677275 21.85603,12.395109 h 0.42943 c -9.49342,-5.769886 -16.82031,-9.890215 -21.99452,-12.462806 -0.097,0.02298 -0.19392,0.04546 -0.29094,0.0677 z"
       style="fill:#9a5e97;stroke-width:0.264583"
       id="path86" />
    <path
       d="m 84.016577,84.671869 h 0.445967 c 0.01188,-0.08613 0.02448,-0.172048 0.03772,-0.257866 h -0.445967 c -0.01319,0.08582 -0.02589,0.171737 -0.03772,0.257866 z"
       style="fill:#ac4d4d;stroke-width:0.264583"
       id="path93" />
    <path
       d="m 127.88108,35.710516 h 0.43822 c -0.59461,-0.810746 -1.20669,-1.619337 -1.83038,-2.426725 h -0.43822 c 0.62361,0.807386 1.23591,1.615977 1.83038,2.426725 z"
       style="fill:#ac4d4d;stroke-width:0.264583"
       id="path74" />
    <path
       d="m 124.69575,31.550563 h 0.4377 c -2.03965,-2.582027 -4.14827,-5.156263 -6.11384,-7.746814 -5.86411,-2.54844 -11.664,-4.76335 -17.23978,-5.812565 h -0.39894 c 5.56183,1.05271 11.34617,3.262283 17.1943,5.80378 1.96776,2.593425 4.07881,5.170712 6.12056,7.755599 z"
       style="fill:#ac4d4d;stroke-width:0.264583"
       id="path73" />
    <path
       d="m 117.79953,72.131032 c 0.052,0.02576 0.10412,0.05195 0.15658,0.07803 4.13868,-0.980381 8.27761,-2.634871 12.41629,-4.459159 9.15186,-11.064307 5.79561,-20.685354 -0.5736,-29.958895 h -0.43874 c 6.36532,9.270748 9.71693,18.889249 0.56793,29.95011 -4.04279,1.782018 -8.08568,3.401979 -12.12846,4.389914 z"
       style="fill:#ac4d4d;stroke-width:0.264583"
       id="path67" />
    <path
       d="m 84.859419,82.680259 c 1.596296,-6.187312 6.227508,-11.64036 7.015076,-17.48162 -0.133075,-0.127298 -0.266384,-0.256707 -0.399459,-0.387574 -0.632166,5.987752 -5.434163,11.544724 -7.062618,17.869194 z"
       style="fill:#ac4d4d;stroke-width:0.264583"
       id="path54" />
    <path
       d="m 105.19203,86.840728 a 2.3975871,2.3975871 0 0 0 -0.21136,0.984436 2.3975871,2.3975871 0 0 0 0.2651,1.095541 h 2.04277 v -2.079977 z"
       style="fill:#777777;stroke-width:0.264583"
       id="path92" />
    <path
       d="m 105.19203,86.840728 h 2.09651 v 2.079977 h -2.04277 a 2.3975871,2.3975871 0 0 0 2.13217,1.302246 2.3975871,2.3975871 0 0 0 2.39779,-2.397787 2.3975871,2.3975871 0 0 0 -2.39779,-2.397786 2.3975871,2.3975871 0 0 0 -2.18591,1.41335 z"
       style="fill:#777777;stroke-width:0.264583"
       id="path91" />
    <path
       d="m 84.500268,84.414003 c 0.09023,-0.584661 0.211767,-1.162478 0.359151,-1.733744 h -0.447001 c -0.147091,0.571261 -0.268223,1.149078 -0.358117,1.733744 z"
       style="fill:#777777;stroke-width:0.264583"
       id="path90" />
    <path
       d="m 128.37408,111.38858 h -0.19172 c -0.15332,0.0997 -0.30365,0.19904 -0.45166,0.29818 0.21562,-0.10016 0.4299,-0.19945 0.64338,-0.29818 z"
       style="fill:#9a5e97;stroke-width:0.264583"
       id="path89" />
    <path
       d="m 139.5212,84.671869 h -6.66781 l 19.85822,10.544059 c 0.25812,4.348248 -14.86209,10.405172 -23.37274,15.727722 9.687,-4.45183 17.40068,-7.58821 29.88604,-13.905611 -7.3693,-4.746196 -13.93609,-8.860533 -19.70371,-12.36617 z"
       style="fill:#9a5e97;stroke-width:0.264583"
       id="path87" />
    <path
       d="m 128.37408,111.38858 c 0.32389,-0.14979 0.64543,-0.29816 0.96479,-0.44493 8.51065,-5.32255 23.63086,-11.379474 23.37274,-15.727722 L 132.85339,84.671869 111.32912,73.243109 c -0.0377,-0.03831 -0.0752,-0.0764 -0.11214,-0.114205 -0.14298,0.0034 -0.28593,0.0056 -0.42891,0.0067 0.0319,0.03261 0.0642,0.06573 0.0966,0.0987 l 41.38197,21.972819 c 0.26549,4.472278 -15.73713,10.752197 -24.08431,16.181437 z"
       style="fill:#9a5e97;stroke-width:0.264583"
       id="path85" />
    <path
       d="m 111.21698,73.128904 c 0.0369,0.03781 0.0744,0.07589 0.11214,0.114205 l 21.52427,11.42876 h 6.66781 c -9.40721,-5.717834 -16.68807,-9.816317 -21.85603,-12.395109 -2.14936,0.492607 -4.29883,0.800562 -6.44819,0.852144 z"
       style="fill:#9a5e97;stroke-width:0.264583"
       id="path84" />
    <path
       d="m 82.746887,43.963242 a 1.2817509,1.2817509 0 0 1 1.037663,1.255221 1.2817509,1.2817509 0 0 1 -1.081071,1.264522 1.2817509,1.2817509 0 0 0 0.243912,0.02636 1.2817509,1.2817509 0 0 0 1.282093,-1.281575 1.2817509,1.2817509 0 0 0 -1.282093,-1.282093 1.2817509,1.2817509 0 0 0 -0.200504,0.01757 z"
       style="fill:#4a4a4a;stroke-width:0.264583"
       id="path83" />
    <path
       d="m 82.502974,43.936887 a 1.2817509,1.2817509 0 0 0 -1.281575,1.281576 1.2817509,1.2817509 0 0 0 1.281575,1.282092 1.2817509,1.2817509 0 0 0 0.200505,-0.01757 1.2817509,1.2817509 0 0 1 -1.037663,-1.25522 1.2817509,1.2817509 0 0 1 1.081071,-1.264523 1.2817509,1.2817509 0 0 0 -0.243913,-0.02636 z"
       style="fill:#ffffff;stroke-width:0.264583"
       id="path82" />
    <path
       d="m 86.348217,39.908709 a 8.7891483,8.7891483 0 0 0 -8.789127,8.789128 8.7891483,8.7891483 0 0 0 8.789127,8.789128 8.7891483,8.7891483 0 0 0 0.155546,-0.01034 8.7891483,8.7891483 0 0 1 -8.500256,-8.770007 8.7891483,8.7891483 0 0 1 8.634098,-8.778792 8.7891483,8.7891483 0 0 0 -0.289388,-0.01912 z"
       style="fill:#4a4a4a;stroke-width:0.264583"
       id="path81" />
    <path
       d="m 89.496862,17.991184 h -0.481107 c -5.651589,1.340197 -10.884061,4.858985 -15.484843,11.663371 0.148206,10.906224 -4.655793,23.133209 9.154997,30.396077 L 72.360441,82.960345 v 0.994771 L 83.130843,60.059417 C 69.320053,52.796549 74.123535,40.569564 73.975329,29.66334 78.58606,22.844241 83.83126,19.32487 89.496862,17.991184 Z"
       style="fill:#ac4d4d;stroke-width:0.264583"
       id="path80" />
    <path
       d="m 95.645841,17.346779 c -2.095717,-0.02504 -4.148631,0.173522 -6.148979,0.644405 h 11.884028 c -1.941033,-0.367387 -3.854971,-0.593988 -5.735049,-0.644405 z"
       style="fill:#ac4d4d;stroke-width:0.264583"
       id="path79" />
    <path
       d="m 148.61935,35.710516 a 1.9067945,1.9067945 0 0 0 -0.20825,0.866614 1.9067945,1.9067945 0 0 0 0.43563,1.213879 h 0.95084 v -2.080493 z"
       style="fill:#777777;stroke-width:0.264583"
       id="path78" />
    <path
       d="m 129.7988,37.791009 h 19.04793 a 1.9067945,1.9067945 0 0 1 -0.43563,-1.213879 1.9067945,1.9067945 0 0 1 0.20825,-0.866614 H 128.3193 c 0.50732,0.691734 1.00203,1.385313 1.4795,2.080493 z"
       style="fill:#777777;stroke-width:0.264583"
       id="path77" />
    <path
       d="m 129.36006,37.791009 c -0.47731,-0.695181 -0.97177,-1.388761 -1.47898,-2.080493 h -3.73827 v 2.080493 z"
       style="fill:#ac4d4d;stroke-width:0.264583"
       id="path76" />
    <path
       d="m 129.36006,37.791009 h 0.43874 c -0.47747,-0.69518 -0.97218,-1.388759 -1.4795,-2.080493 h -0.43822 c 0.50721,0.691732 1.00167,1.385312 1.47898,2.080493 z"
       style="fill:#777777;stroke-width:0.264583"
       id="path75" />
    <path
       d="m 126.0507,33.283791 h 0.43822 c -0.4468,-0.578397 -0.89942,-1.1559 -1.35547,-1.733228 h -0.4377 c 0.45602,0.577327 0.90821,1.15483 1.35495,1.733228 z"
       style="fill:#777777;stroke-width:0.264583"
       id="path72" />
    <path
       d="m 122.06232,32.870379 v -0.875398 a 9.3384714,9.3384714 0 0 0 -2.45205,-3.57911 10.329333,10.329333 0 0 1 2.45205,4.454508 z"
       style="fill:#ac4d4d;stroke-width:0.264583"
       id="path71" />
    <path
       d="m 126.0507,33.283791 c -0.44674,-0.578398 -0.89893,-1.155901 -1.35495,-1.733228 h -2.63343 v 0.444418 a 9.3384714,9.3384714 0 0 1 0.39067,1.28881 z"
       style="fill:#ac4d4d;stroke-width:0.264583"
       id="path70" />
    <path
       d="m 122.45299,33.283791 a 9.3384714,9.3384714 0 0 0 -0.39067,-1.28881 v 0.875398 a 10.329333,10.329333 0 0 1 0.0987,0.413412 z"
       style="fill:#ac4d4d;stroke-width:0.264583"
       id="path69" />
    <path
       d="m 122.45299,33.283791 h -0.29197 a 10.329333,10.329333 0 0 1 0.23409,2.187463 10.329333,10.329333 0 0 1 -1.418,5.216736 9.3384714,9.3384714 0 0 0 1.70481,-5.348511 9.3384714,9.3384714 0 0 0 -0.22893,-2.055688 z"
       style="fill:#ac4d4d;stroke-width:0.264583"
       id="path68" />
    <path
       d="m 117.51169,72.200278 c 0.0959,-0.02272 0.19194,-0.04581 0.28784,-0.06925 -0.73399,-0.363547 -1.42381,-0.695313 -2.06964,-0.995805 a 14.832679,13.370302 0 0 1 -0.2589,0.07855 c 0.63829,0.299038 1.31859,0.627474 2.0407,0.986503 z"
       style="fill:#ac4d4d;stroke-width:0.264583"
       id="path66" />
    <path
       d="m 117.79953,72.131032 c 4.04278,-0.987934 8.08567,-2.607895 12.12846,-4.389913 9.149,-11.060861 5.79739,-20.679362 -0.56793,-29.95011 h -5.21725 v -2.080493 h 3.73827 c -0.59447,-0.810748 -1.20677,-1.619339 -1.83038,-2.426725 h -3.59771 a 9.3384714,9.3384714 0 0 1 0.22893,2.055688 9.3384714,9.3384714 0 0 1 -1.70481,5.348511 10.329333,10.329333 0 0 1 -6.52105,4.832263 14.832679,13.370302 0 0 1 11.2634,12.977503 14.832679,13.370302 0 0 1 -9.98957,12.637471 c 0.64583,0.300492 1.33565,0.632258 2.06964,0.995805 z"
       style="fill:#ac4d4d;stroke-width:0.264583"
       id="path65" />
    <path
       d="m 109.23468,68.945697 c 0.89619,0.08758 2.35321,0.559227 4.37337,1.428336 a 13.000616,11.718865 0 0 0 0.28164,-0.06098 c -2.30818,-0.983218 -3.85898,-1.432062 -4.65501,-1.367358 z"
       style="fill:#4a4a4a;stroke-width:0.264583"
       id="path64" />
    <path
       d="m 108.53033,70.440179 c -0.66685,-1.097872 -0.43333,-1.605661 0.70435,-1.494482 0.79603,-0.0647 2.34683,0.38414 4.65501,1.367358 a 13.000616,11.718865 0 0 0 9.81232,-11.361064 13.000616,11.718865 0 0 0 -12.70413,-11.701611 13.000616,11.718865 0 0 0 -12.85245,11.710396 13.000616,11.718865 0 0 0 10.3849,11.479403 z m -5.15318,-18.080033 a 2.0141799,2.0141799 0 0 1 0.26304,0.01705 2.0141799,2.0141799 0 0 1 0.18138,-0.0083 2.0141799,2.0141799 0 0 1 2.01435,2.01383 2.0141799,2.0141799 0 0 1 -2.01435,2.014348 2.0141799,2.0141799 0 0 1 -0.27647,-0.01964 2.0141799,2.0141799 0 0 1 -0.16795,0.01085 2.0141799,2.0141799 0 0 1 -2.01435,-2.014348 2.0141799,2.0141799 0 0 1 2.01435,-2.01383 z"
       style="fill:#4a4a4a;stroke-width:0.264583"
       id="path63" />
    <path
       d="m 115.72989,71.135227 c -0.59641,-0.277496 -1.15545,-0.528072 -1.6769,-0.752409 a 13.000616,11.718865 0 0 1 -0.29198,0.05736 c 0.53205,0.230918 1.10194,0.488735 1.70998,0.773596 a 14.832679,13.370302 0 0 0 0.2589,-0.07855 z"
       style="fill:#787878;stroke-width:0.301868"
       id="path62" />
    <path
       d="m 111.19528,73.106683 c 2.10552,-0.08308 4.21089,-0.407645 6.31641,-0.906405 -0.72211,-0.359029 -1.40241,-0.687465 -2.0407,-0.986503 a 14.832679,13.370302 0 0 1 -4.58422,0.654224 14.832679,13.370302 0 0 1 -0.85679,-0.02222 c 0.33085,0.383227 0.71946,0.803857 1.1653,1.260904 z"
       style="fill:#ac4d4d;stroke-width:0.264583"
       id="path61" />
    <path
       d="m 110.77257,73.120119 c 0.14086,-0.0034 0.28185,-0.0079 0.42271,-0.01344 -0.44584,-0.457048 -0.83445,-0.877678 -1.1653,-1.260905 a 14.832679,13.370302 0 0 1 -0.46302,-0.03049 c 0.34025,0.395282 0.74211,0.830432 1.20561,1.30483 z"
       style="fill:#ac4d4d;stroke-width:0.264583"
       id="path60" />
    <path
       d="m 110.02998,71.845778 c -0.41645,-0.482372 -0.74162,-0.905902 -0.97566,-1.26969 a 13.000616,11.718865 0 0 1 -0.47904,-0.06305 c 0.23278,0.370367 0.56343,0.804739 0.99168,1.302246 a 14.832679,13.370302 0 0 0 0.46302,0.03049 z"
       style="fill:#787878;stroke-width:0.301868"
       id="path59" />
    <path
       d="m 108.53033,70.440179 a 13.000616,11.718865 0 0 0 0.48937,0.08165 c -0.61748,-0.982467 -0.5466,-1.514229 0.21498,-1.576131 -1.13768,-0.111179 -1.3712,0.39661 -0.70435,1.494481 z"
       style="fill:#4a4a4a;stroke-width:0.264583"
       id="path58" />
    <path
       d="m 109.23468,68.945697 c -0.76158,0.0619 -0.83246,0.593664 -0.21498,1.576131 a 13.000616,11.718865 0 0 0 0.96377,0.107487 13.000616,11.718865 0 0 0 0.34881,0.02015 13.000616,11.718865 0 0 0 0.45579,0.01654 13.000616,11.718865 0 0 0 2.81998,-0.291972 c -2.02016,-0.869109 -3.47718,-1.340757 -4.37337,-1.428336 z"
       style="fill:#4a4a4a;stroke-width:0.264583"
       id="path57" />
    <path
       d="m 115.47099,71.213775 c -0.60804,-0.284861 -1.17793,-0.542678 -1.70998,-0.773596 a 13.000616,11.718865 0 0 1 -2.61482,0.239262 13.000616,11.718865 0 0 1 -0.35812,-0.01344 13.000616,11.718865 0 0 1 -0.0868,0.0047 13.000616,11.718865 0 0 1 -0.36897,-0.02119 13.000616,11.718865 0 0 1 -0.34881,-0.02015 13.000616,11.718865 0 0 1 -0.92915,-0.05323 c 0.23404,0.363788 0.55921,0.787318 0.97566,1.26969 a 14.832679,13.370302 0 0 0 0.85679,0.02222 14.832679,13.370302 0 0 0 4.58422,-0.654224 z"
       style="fill:#787878;stroke-width:0.301868"
       id="path56" />
    <path
       d="m 91.874495,65.198639 c 5.985082,5.72528 11.969895,7.8582 17.954975,7.927164 -5.96997,-0.171694 -11.939482,-2.434998 -17.9095,-8.305953 -0.01334,0.126391 -0.02848,0.25277 -0.04548,0.378789 z"
       style="fill:#ac4d4d;stroke-width:0.264583"
       id="path55" />
    <path
       d="m 86.637605,39.92783 a 8.7891483,8.7891483 0 0 1 8.49974,8.770007 8.7891483,8.7891483 0 0 1 -8.633582,8.778792 8.7891483,8.7891483 0 0 0 0.288872,0.01912 8.7891483,8.7891483 0 0 0 8.789127,-8.789128 8.7891483,8.7891483 0 0 0 -8.789127,-8.789128 8.7891483,8.7891483 0 0 0 -0.15503,0.01034 z"
       style="fill:#777777;stroke-width:0.294411"
       id="path53" />
    <path
       d="m 103.64019,52.377199 a 2.0141799,2.0141799 0 0 1 1.75131,1.996777 2.0141799,2.0141799 0 0 1 -1.8464,2.003496 2.0141799,2.0141799 0 0 0 0.27647,0.01964 2.0141799,2.0141799 0 0 0 2.01435,-2.014348 2.0141799,2.0141799 0 0 0 -2.01435,-2.01383 2.0141799,2.0141799 0 0 0 -0.18138,0.0083 z"
       style="fill:#4a4a4a;stroke-width:0.264583"
       id="path52" />
    <path
       d="m 108.57528,70.513043 c -0.0154,-0.02458 -0.0304,-0.04885 -0.045,-0.07286 A 13.000616,11.718865 0 0 1 98.14543,58.960776 13.000616,11.718865 0 0 1 110.99788,47.25038 13.000616,11.718865 0 0 0 110.70125,47.23281 13.000616,11.718865 0 0 0 97.701013,58.951991 13.000616,11.718865 0 0 0 108.57528,70.513043 Z"
       style="fill:#4a4a4a;stroke-width:0.264583"
       id="path51" />
    <path
       d="m 113.88969,70.313055 c 0.0541,0.02303 0.10839,0.04614 0.1633,0.06976 a 13.000616,11.718865 0 0 0 10.09395,-11.422042 13.000616,11.718865 0 0 0 -13.00075,-11.719181 13.000616,11.718865 0 0 0 -0.14831,0.0088 13.000616,11.718865 0 0 1 12.70413,11.701611 13.000616,11.718865 0 0 1 -9.81232,11.361064 z"
       style="fill:#787878;stroke-width:0.301868"
       id="path50" />
    <path
       d="m 114.45606,45.520253 a 14.832679,13.370302 0 0 0 -3.56929,-0.392741 14.832679,13.370302 0 0 0 -2.10891,0.135909 10.329333,10.329333 0 0 0 3.28817,0.537435 10.329333,10.329333 0 0 0 2.39003,-0.280603 z"
       style="fill:#787878;stroke-width:0.301868"
       id="path49" />
    <path
       d="m 122.16102,33.283791 h -0.0987 v -0.413412 a 10.329333,10.329333 0 0 0 -2.45205,-4.454508 9.3384714,9.3384714 0 0 0 -5.83324,-2.405021 9.3384714,9.3384714 0 0 1 7.66775,9.188069 9.3384714,9.3384714 0 0 1 -9.33844,9.338448 9.3384714,9.3384714 0 0 1 -0.43099,-0.02842 9.3384714,9.3384714 0 0 0 1.66812,0.169499 9.3384714,9.3384714 0 0 0 7.63364,-3.990454 10.329333,10.329333 0 0 0 1.418,-5.216736 10.329333,10.329333 0 0 0 -0.23409,-2.187463 z"
       style="fill:#7a7a7a;stroke-width:0.292657"
       id="path48" />
    <path
       d="m 108.76339,30.404897 a 1.6479654,1.2817509 0 0 0 -1.46245,1.27279 1.6479654,1.2817509 0 0 0 1.387,1.263489 1.6479654,1.2817509 0 0 0 1.46399,-1.272274 1.6479654,1.2817509 0 0 0 -1.38854,-1.264005 z"
       style="fill:#ffffff;stroke-width:0.264583"
       id="path47" />
    <path
       d="m 108.76339,30.404897 a 1.6479654,1.2817509 0 0 1 1.38854,1.264005 1.6479654,1.2817509 0 0 1 -1.46399,1.272274 1.6479654,1.2817509 0 0 0 0.26097,0.01809 1.6479654,1.2817509 0 0 0 1.64796,-1.281576 1.6479654,1.2817509 0 0 0 -1.64796,-1.282092 1.6479654,1.2817509 0 0 0 -0.18552,0.0093 z"
       style="fill:#4a4a4a;stroke-width:0.264583"
       id="path46" />
    <path
       d="m 108.50397,30.38681 a 1.6479654,1.2817509 0 0 0 -1.64796,1.282092 1.6479654,1.2817509 0 0 0 1.64796,1.281576 1.6479654,1.2817509 0 0 0 0.18397,-0.0093 1.6479654,1.2817509 0 0 1 -1.387,-1.263489 1.6479654,1.2817509 0 0 1 1.46245,-1.27279 1.6479654,1.2817509 0 0 0 -0.25942,-0.01809 z"
       style="fill:#ffffff;stroke-width:0.264583"
       id="path45" />
    <path
       d="m 113.77703,26.01085 a 9.3384714,9.3384714 0 0 0 -1.67069,-0.150379 9.3384714,9.3384714 0 0 0 -9.33897,9.338448 9.3384714,9.3384714 0 0 0 8.90798,9.310026 9.3384714,9.3384714 0 0 1 -7.67033,-9.169466 9.3384714,9.3384714 0 0 1 9.33845,-9.338448 9.3384714,9.3384714 0 0 1 0.43356,0.0098 z"
       style="fill:#4a4a4a;stroke-width:0.264583"
       id="path44" />
    <path
       d="m 113.77703,26.01085 a 9.3384714,9.3384714 0 0 0 -0.43356,-0.0098 9.3384714,9.3384714 0 0 0 -9.33845,9.338448 9.3384714,9.3384714 0 0 0 7.67033,9.169466 9.3384714,9.3384714 0 0 0 0.43099,0.02842 9.3384714,9.3384714 0 0 0 9.33844,-9.338448 9.3384714,9.3384714 0 0 0 -7.66775,-9.188069 z m -5.27306,4.37596 a 1.6479654,1.2817509 0 0 1 0.25942,0.01809 1.6479654,1.2817509 0 0 1 0.18552,-0.0093 1.6479654,1.2817509 0 0 1 1.64796,1.282092 1.6479654,1.2817509 0 0 1 -1.64796,1.281576 1.6479654,1.2817509 0 0 1 -0.26097,-0.01809 1.6479654,1.2817509 0 0 1 -0.18397,0.0093 1.6479654,1.2817509 0 0 1 -1.64796,-1.281576 1.6479654,1.2817509 0 0 1 1.64796,-1.282092 z"
       style="fill:#4a4a4a;stroke-width:0.264583"
       id="path43" />
    <path
       d="m 119.61027,28.415871 a 10.329333,10.329333 0 0 0 -7.54424,-3.273702 10.329333,10.329333 0 0 0 -10.3296,10.329085 10.329333,10.329333 0 0 0 7.04143,9.792167 14.832679,13.370302 0 0 1 2.10891,-0.135909 14.832679,13.370302 0 0 1 3.56929,0.392741 10.329333,10.329333 0 0 0 6.52105,-4.832263 9.3384714,9.3384714 0 0 1 -7.63364,3.990454 9.3384714,9.3384714 0 0 1 -1.66812,-0.169499 9.3384714,9.3384714 0 0 1 -8.90798,-9.310026 9.3384714,9.3384714 0 0 1 9.33897,-9.338448 9.3384714,9.3384714 0 0 1 1.67069,0.150379 9.3384714,9.3384714 0 0 1 5.83324,2.405021 z"
       style="fill:#7a7a7a;stroke-width:0.292657"
       id="path42" />
    <path
       d="m 86.510481,38.902052 a 9.7800102,9.7800102 0 0 0 -9.779764,9.779765 9.7800102,9.7800102 0 0 0 9.779764,9.780282 9.7800102,9.7800102 0 0 0 9.780282,-9.780282 9.7800102,9.7800102 0 0 0 -9.780282,-9.779765 z m -0.162264,1.006657 a 8.7891483,8.7891483 0 0 1 0.289388,0.01912 8.7891483,8.7891483 0 0 1 0.15503,-0.01034 8.7891483,8.7891483 0 0 1 8.789127,8.789128 8.7891483,8.7891483 0 0 1 -8.789127,8.789128 8.7891483,8.7891483 0 0 1 -0.288872,-0.01912 8.7891483,8.7891483 0 0 1 -0.155546,0.01034 8.7891483,8.7891483 0 0 1 -8.789127,-8.789128 8.7891483,8.7891483 0 0 1 8.789127,-8.789128 z"
       style="fill:#777777;stroke-width:0.294411"
       id="path41" />
    <path
       d="m 82.746887,43.963242 a 1.2817509,1.2817509 0 0 0 -1.081071,1.264523 1.2817509,1.2817509 0 0 0 1.037663,1.25522 1.2817509,1.2817509 0 0 0 1.081071,-1.264522 1.2817509,1.2817509 0 0 0 -1.037663,-1.255221 z"
       style="fill:#ffffff;stroke-width:0.264583"
       id="path40" />
    <path
       d="m 86.637605,39.92783 a 8.7891483,8.7891483 0 0 0 -8.634098,8.778792 8.7891483,8.7891483 0 0 0 8.500256,8.770007 8.7891483,8.7891483 0 0 0 8.633582,-8.778792 8.7891483,8.7891483 0 0 0 -8.49974,-8.770007 z m -4.134631,4.009057 a 1.2817509,1.2817509 0 0 1 0.243913,0.02636 1.2817509,1.2817509 0 0 1 0.200504,-0.01757 1.2817509,1.2817509 0 0 1 1.282093,1.282093 1.2817509,1.2817509 0 0 1 -1.282093,1.281575 1.2817509,1.2817509 0 0 1 -0.243912,-0.02636 1.2817509,1.2817509 0 0 1 -0.200505,0.01757 1.2817509,1.2817509 0 0 1 -1.281575,-1.282092 1.2817509,1.2817509 0 0 1 1.281575,-1.281576 z"
       style="fill:#4a4a4a;stroke-width:0.264583"
       id="path39" />
    <path
       d="m 114.45606,45.520253 a 10.329333,10.329333 0 0 1 -2.39003,0.280603 10.329333,10.329333 0 0 1 -3.28817,-0.537435 14.832679,13.370302 0 0 0 -12.723775,13.234335 14.832679,13.370302 0 0 0 13.512875,13.317533 c -0.42825,-0.497507 -0.7589,-0.931879 -0.99168,-1.302246 A 13.000616,11.718865 0 0 1 97.701013,58.951991 13.000616,11.718865 0 0 1 110.70125,47.23281 a 13.000616,11.718865 0 0 1 0.29663,0.01757 13.000616,11.718865 0 0 1 0.14831,-0.0088 13.000616,11.718865 0 0 1 13.00075,11.719181 13.000616,11.718865 0 0 1 -10.09395,11.422042 c 0.52145,0.224337 1.08049,0.474913 1.6769,0.752409 a 14.832679,13.370302 0 0 0 9.98957,-12.637471 14.832679,13.370302 0 0 0 -11.2634,-12.977503 z"
       style="fill:#787878;stroke-width:0.301868"
       id="path38" />
    <path
       d="m 103.64019,52.377199 a 2.0141799,2.0141799 0 0 0 -1.83245,2.005562 2.0141799,2.0141799 0 0 0 1.73736,1.994711 2.0141799,2.0141799 0 0 0 1.8464,-2.003496 2.0141799,2.0141799 0 0 0 -1.75131,-1.996777 z"
       style="fill:#ffffff;stroke-width:0.264583"
       id="path37" />
    <path
       d="m 103.37715,52.360146 a 2.0141799,2.0141799 0 0 0 -2.01435,2.01383 2.0141799,2.0141799 0 0 0 2.01435,2.014348 2.0141799,2.0141799 0 0 0 0.16795,-0.01085 2.0141799,2.0141799 0 0 1 -1.73736,-1.994711 2.0141799,2.0141799 0 0 1 1.83245,-2.005562 2.0141799,2.0141799 0 0 0 -0.26304,-0.01705 z"
       style="fill:#ffffff;stroke-width:0.264583"
       id="path36" />
    <path
       d="m 97.063326,82.680259 a 2.0779088,1.9180697 0 0 0 -0.07493,0.509529 2.0779088,1.9180697 0 0 0 0.478524,1.224215 h 0.807702 v -1.733744 z"
       style="fill:#777777;stroke-width:0.264583"
       id="path35" />
    <path
       d="m 97.063326,82.680259 h 1.211295 v 1.733744 h -0.807702 a 2.0779088,1.9180697 0 0 0 1.599385,0.694015 2.0779088,1.9180697 0 0 0 2.077906,-1.91823 2.0779088,1.9180697 0 0 0 -2.077906,-1.918229 2.0779088,1.9180697 0 0 0 -2.002978,1.4087 z"
       style="fill:#777777;stroke-width:0.264583"
       id="path34" />
    <path
       d="m 84.500268,84.414003 h 12.966651 a 2.0779088,1.9180697 0 0 1 -0.478524,-1.224215 2.0779088,1.9180697 0 0 1 0.07493,-0.509529 H 84.859419 c -0.147384,0.571266 -0.268924,1.149083 -0.359151,1.733744 z"
       style="fill:#777777;stroke-width:0.264583"
       id="path33" />
    <path
       d="M 84.412418,82.680259 H 79.5538 v 1.733744 h 4.500501 c 0.08989,-0.584666 0.211026,-1.162483 0.358117,-1.733744 z"
       style="fill:#ac4d4d;stroke-width:0.264583"
       id="path32" />
    <path
       d="m 72.360441,83.955116 v -0.994771 l -1.393197,3.091284 1.393197,17.264061 V 84.671869 h -0.322978 z"
       style="fill:#ac4d4d;stroke-width:0.264583"
       id="path31" />
    <path
       d="m 84.047583,88.920705 c -0.111775,-0.704811 -0.166694,-1.397607 -0.1726,-2.079977 h -2.241207 v 2.079977 z"
       style="fill:#ac4d4d;stroke-width:0.264583"
       id="path30" />
    <path
       d="m 84.047583,88.920705 h 21.198187 a 2.3975871,2.3975871 0 0 1 -0.2651,-1.095541 2.3975871,2.3975871 0 0 1 0.21136,-0.984436 H 83.874983 c 0.0059,0.68237 0.06082,1.375166 0.1726,2.079977 z"
       style="fill:#777777;stroke-width:0.264583"
       id="path29" />
    <path
       d="m 87.965173,106.84623 c 1.466892,1.4398 3.037076,2.93925 4.669999,4.47517 h 4.992977 v -3.9734 l -0.492476,-0.50177 z"
       style="fill:#ac4d4d;stroke-width:0.264583"
       id="path28" />
    <path
       d="m 79.34296,111.3214 h 13.292212 c -1.632923,-1.53592 -3.203107,-3.03537 -4.669999,-4.47517 h -8.673889 c -0.01175,1.35634 0.0064,2.85491 0.05168,4.47517 z"
       style="fill:#777777;stroke-width:0.264583"
       id="path27" />
    <path
       d="m 79.34296,111.3214 c -0.04527,-1.62026 -0.06343,-3.11883 -0.05168,-4.47517 h -3.081983 v 4.47517 z"
       style="fill:#ac4d4d;stroke-width:0.264583"
       id="path26" />
    <path
       d="m 72.360441,84.671869 v 18.643821 l 0.65164,8.07289 h 6.33243 c -6.33e-4,-0.0223 -9.29e-4,-0.0449 -0.0016,-0.0672 h -3.133659 v -4.47517 h 3.081983 c 0.06833,-7.886113 1.14573,-10.953962 3.761011,-5.04724 1.424787,1.55919 3.088884,3.25692 4.912878,5.04724 h 9.1705 l -6.392892,-6.51227 C 86.5221,96.142535 84.597472,92.388123 84.047583,88.920705 h -2.413807 v -2.079977 h 2.241207 c -0.0064,-0.734722 0.04384,-1.457116 0.141594,-2.168859 z"
       style="fill:#ac4d4d;stroke-width:0.264583"
       id="path25" />
    <path
       d="m 148.61935,35.710516 h 1.17822 v 2.080493 h -0.95084 a 1.9067945,1.9067945 0 0 0 1.47123,0.692981 1.9067945,1.9067945 0 0 0 1.90686,-1.90686 1.9067945,1.9067945 0 0 0 -1.90686,-1.906344 1.9067945,1.9067945 0 0 0 -1.69861,1.03973 z"
       style="fill:#777777;stroke-width:0.264583"
       id="path24" />
    <path
       d="m 138.56519,31.550563 a 1.9067945,1.9067945 0 0 0 -0.20826,0.866614 1.9067945,1.9067945 0 0 0 0.20826,0.866614 h 2.21846 v -1.733228 z"
       style="fill:#777777;stroke-width:0.264583"
       id="path23" />
    <path
       d="m 138.56519,31.550563 h 2.21846 v 1.733228 h -2.21846 a 1.9067945,1.9067945 0 0 0 1.6986,1.040246 1.9067945,1.9067945 0 0 0 1.90686,-1.90686 1.9067945,1.9067945 0 0 0 -1.90686,-1.90686 1.9067945,1.9067945 0 0 0 -1.6986,1.040246 z"
       style="fill:#777777;stroke-width:0.264583"
       id="path22" />
    <path
       d="m 126.48892,33.283791 h 12.07627 a 1.9067945,1.9067945 0 0 1 -0.20826,-0.866614 1.9067945,1.9067945 0 0 1 0.20826,-0.866614 h -13.43174 c 0.45605,0.577328 0.90867,1.154831 1.35547,1.733228 z"
       style="fill:#777777;stroke-width:0.264583"
       id="path21" />
    <path
       d="M 89.496862,17.991184 C 83.83126,19.32487 78.58606,22.844241 73.975329,29.66334 74.123535,40.569564 69.320053,52.796549 83.130843,60.059417 L 72.360441,83.955116 v 0.716753 h 11.656136 c 0.01183,-0.08613 0.02453,-0.172048 0.03772,-0.257866 H 79.5538 v -1.733744 h 4.858618 c 1.628455,-6.32447 6.430452,-11.881442 7.062618,-17.869194 0.133075,0.130867 0.266384,0.260276 0.399459,0.387574 0.01699,-0.126019 0.03213,-0.252398 0.04548,-0.378789 5.970018,5.870955 11.939535,8.134259 17.909505,8.305953 0.3143,0.0036 0.6288,0.0019 0.9431,-0.0057 -0.4635,-0.474398 -0.86536,-0.909548 -1.20561,-1.30483 A 14.832679,13.370302 0 0 1 96.054085,58.497756 14.832679,13.370302 0 0 1 108.77786,45.263421 a 10.329333,10.329333 0 0 1 -7.04143,-9.792167 10.329333,10.329333 0 0 1 10.3296,-10.329085 10.329333,10.329333 0 0 1 7.54424,3.273702 9.3384714,9.3384714 0 0 1 2.45205,3.57911 v -0.444418 h 2.63343 c -2.04175,-2.584887 -4.1528,-5.162174 -6.12056,-7.755599 -5.84813,-2.541497 -11.63247,-4.75107 -17.1943,-5.80378 z m -2.986381,20.910868 a 9.7800102,9.7800102 0 0 1 9.780282,9.779765 9.7800102,9.7800102 0 0 1 -9.780282,9.780282 9.7800102,9.7800102 0 0 1 -9.779764,-9.780282 9.7800102,9.7800102 0 0 1 9.779764,-9.779765 z"
       style="fill:#ac4d4d;stroke-width:0.264583"
       id="path20" />
  </g>
</svg>
