<?xml version="1.0" encoding="UTF-8" standalone="no"?>
<!-- Created with Inkscape (http://www.inkscape.org/) -->

<svg
   width="87.631859mm"
   height="94.3508mm"
   viewBox="0 0 87.631859 94.3508"
   version="1.1"
   id="svg1"
   inkscape:version="1.4.3 (fcd0343856, 2026-01-01)"
   sodipodi:docname="alien3_face.svg"
   xmlns:inkscape="http://www.inkscape.org/namespaces/inkscape"
   xmlns:sodipodi="http://sodipodi.sourceforge.net/DTD/sodipodi-0.dtd"
   xmlns="http://www.w3.org/2000/svg"
   xmlns:svg="http://www.w3.org/2000/svg">
  <sodipodi:namedview
     id="namedview1"
     pagecolor="#ffffff"
     bordercolor="#000000"
     borderopacity="0.25"
     inkscape:showpageshadow="2"
     inkscape:pageopacity="0.0"
     inkscape:pagecheckerboard="0"
     inkscape:deskcolor="#d1d1d1"
     inkscape:document-units="mm"
     inkscape:zoom="0.81870227"
     inkscape:cx="95.27273"
     inkscape:cy="360.93707"
     inkscape:window-width="1850"
     inkscape:window-height="1016"
     inkscape:window-x="70"
     inkscape:window-y="27"
     inkscape:window-maximized="1"
     inkscape:current-layer="layer1" />
  <defs
     id="defs1" />
  <g
     inkscape:label="Layer 1"
     inkscape:groupmode="layer"
     id="layer1"
     transform="translate(-72.037463,-17.344712)">
    <path
       d="m 139.95063,84.671834 h -7.09724 l 19.85822,10.54406 c 0.27036,4.554424 -16.3306,10.983386 -24.53649,16.479616 10.4658,-4.8613 18.32593,-7.98578 31.4942,-14.64872 -7.37561,-4.75027 -13.9475,-8.867355 -19.71869,-12.374956 z"
       style="fill:#9a5e97;stroke-width:0.264583"
       id="path19" />
    <path
       d="m 139.95063,84.671834 c -9.49342,-5.769886 -16.82031,-9.890214 -21.99452,-12.462805 -2.24638,0.532128 -4.49275,0.865933 -6.73913,0.919841 0.0369,0.03781 0.0744,0.07589 0.11214,0.114205 l 21.52427,11.428759 z"
       style="fill:#9a5e97;stroke-width:0.264583"
       id="path15" />
    <path
       d="m 117.95611,72.209029 c -1.4763,-0.734007 -2.77699,-1.341764 -3.90312,-1.826245 a 13.000616,11.718865 0 0 1 -2.9068,0.296623 13.000616,11.718865 0 0 1 -2.12649,-0.157613 c 0.41772,0.664633 1.15043,1.535595 2.19728,2.607076 2.24638,-0.05391 4.49275,-0.387713 6.73913,-0.919841 z"
       style="fill:#ac4d4d;stroke-width:0.264583"
       id="path14" />
    <path
       d="m 84.462545,84.671834 c 0.988217,-7.165298 6.76007,-13.246807 7.457426,-19.852018 6.432452,6.325716 12.864559,8.463416 19.297009,8.309054 -1.04685,-1.071481 -1.77956,-1.942443 -2.19728,-2.607076 A 13.000616,11.718865 0 0 1 98.145431,58.960742 13.000616,11.718865 0 0 1 111.14619,47.241561 13.000616,11.718865 0 0 1 124.14694,58.960742 13.000616,11.718865 0 0 1 114.05299,70.382784 c 1.12613,0.484481 2.42682,1.092238 3.90312,1.826245 4.13868,-0.980381 8.27761,-2.634871 12.41629,-4.459159 C 144.16669,51.072999 129.54409,37.674575 119.01961,23.803715 102.22568,16.505359 85.957743,11.941763 73.97533,29.663306 74.123536,40.56953 69.320053,52.796515 83.130843,60.059383 L 72.037463,84.671834 Z M 113.34347,26.000997 a 9.3384714,9.3384714 0 0 1 9.33845,9.338448 9.3384714,9.3384714 0 0 1 -9.33845,9.338965 9.3384714,9.3384714 0 0 1 -9.33845,-9.338965 9.3384714,9.3384714 0 0 1 9.33845,-9.338448 z M 86.792635,39.91746 a 8.7891483,8.7891483 0 0 1 8.789128,8.789128 8.7891483,8.7891483 0 0 1 -8.789128,8.789127 8.7891483,8.7891483 0 0 1 -8.789128,-8.789127 8.7891483,8.7891483 0 0 1 8.789128,-8.789128 z"
       style="fill:#ac4d4d;stroke-width:0.264583"
       id="path9" />
    <path
       d="m 113.34347,26.000997 a 9.3384714,9.3384714 0 0 0 -9.33845,9.338448 9.3384714,9.3384714 0 0 0 9.33845,9.338965 9.3384714,9.3384714 0 0 0 9.33845,-9.338965 9.3384714,9.3384714 0 0 0 -9.33845,-9.338448 z m -4.39456,4.394564 a 1.6479654,1.2817509 0 0 1 1.64796,1.282092 1.6479654,1.2817509 0 0 1 -1.64796,1.281576 1.6479654,1.2817509 0 0 1 -1.64797,-1.281576 1.6479654,1.2817509 0 0 1 1.64797,-1.282092 z"
       style="fill:#4a4a4a;stroke-width:0.264583"
       id="path16" />
    <path
       d="m 86.792635,39.91746 a 8.7891483,8.7891483 0 0 0 -8.789128,8.789128 8.7891483,8.7891483 0 0 0 8.789128,8.789127 8.7891483,8.7891483 0 0 0 8.789128,-8.789127 8.7891483,8.7891483 0 0 0 -8.789128,-8.789128 z m -3.845243,4.028178 a 1.2817509,1.2817509 0 0 1 1.282092,1.282092 1.2817509,1.2817509 0 0 1 -1.282092,1.281576 1.2817509,1.2817509 0 0 1 -1.281576,-1.281576 1.2817509,1.2817509 0 0 1 1.281576,-1.282092 z"
       style="fill:#4a4a4a;stroke-width:0.264583"
       id="path10" />
    <path
       d="m 109.0197,70.521794 a 13.000616,11.718865 0 0 0 2.12649,0.157613 13.000616,11.718865 0 0 0 2.9068,-0.296623 c -4.64078,-1.996542 -6.31131,-1.894436 -5.03329,0.13901 z"
       style="fill:#4a4a4a;stroke-width:0.264583"
       id="path13" />
    <path
       d="m 109.0197,70.521794 c -1.27802,-2.033446 0.39251,-2.135552 5.03329,-0.13901 A 13.000616,11.718865 0 0 0 124.14694,58.960742 13.000616,11.718865 0 0 0 111.14619,47.241561 13.000616,11.718865 0 0 0 98.145431,58.960742 13.000616,11.718865 0 0 0 109.0197,70.521794 Z m -5.19813,-18.152898 a 2.0141799,2.0141799 0 0 1 2.01435,2.013831 2.0141799,2.0141799 0 0 1 -2.01435,2.014347 2.0141799,2.0141799 0 0 1 -2.01383,-2.014347 2.0141799,2.0141799 0 0 1 2.01383,-2.013831 z"
       style="fill:#4a4a4a;stroke-width:0.264583"
       id="path11" />
    <path
       d="m 103.82157,52.368896 a 2.0141799,2.0141799 0 0 0 -2.01383,2.013831 2.0141799,2.0141799 0 0 0 2.01383,2.014347 2.0141799,2.0141799 0 0 0 2.01435,-2.014347 2.0141799,2.0141799 0 0 0 -2.01435,-2.013831 z"
       style="fill:#ffffff;stroke-width:0.264583"
       id="path12" />
    <path
       d="m 82.947392,43.945638 a 1.2817509,1.2817509 0 0 0 -1.281576,1.282092 1.2817509,1.2817509 0 0 0 1.281576,1.281576 1.2817509,1.2817509 0 0 0 1.282092,-1.281576 1.2817509,1.2817509 0 0 0 -1.282092,-1.282092 z"
       style="fill:#ffffff;stroke-width:0.264583"
       id="path18" />
    <path
       d="m 108.94891,30.395561 a 1.6479654,1.2817509 0 0 0 -1.64797,1.282092 1.6479654,1.2817509 0 0 0 1.64797,1.281576 1.6479654,1.2817509 0 0 0 1.64796,-1.281576 1.6479654,1.2817509 0 0 0 -1.64796,-1.282092 z"
       style="fill:#ffffff;stroke-width:0.264583"
       id="path17" />
  </g>
</svg>
