<?xml version="1.0" encoding="UTF-8" standalone="no"?>
<!-- Created with Inkscape (http://www.inkscape.org/) -->

<svg
   width="160.83153mm"
   height="165.41801mm"
   viewBox="0 0 160.83153 165.41801"
   version="1.1"
   id="svg1"
   inkscape:version="1.4.3 (fcd0343856, 2026-01-01)"
   sodipodi:docname="alien2.svg"
   xmlns:inkscape="http://www.inkscape.org/namespaces/inkscape"
   xmlns:sodipodi="http://sodipodi.sourceforge.net/DTD/sodipodi-0.dtd"
   xmlns="http://www.w3.org/2000/svg"
   xmlns:svg="http://www.w3.org/2000/svg">
  <sodipodi:namedview
     id="namedview1"
     pagecolor="#ffffff"
     bordercolor="#000000"
     borderopacity="0.25"
     inkscape:showpageshadow="2"
     inkscape:pageopacity="0.0"
     inkscape:pagecheckerboard="0"
     inkscape:deskcolor="#d1d1d1"
     inkscape:document-units="mm"
     inkscape:zoom="0.8739907"
     inkscape:cx="299.77436"
     inkscape:cy="455.95451"
     inkscape:window-width="1850"
     inkscape:window-height="1016"
     inkscape:window-x="70"
     inkscape:window-y="27"
     inkscape:window-maximized="1"
     inkscape:current-layer="layer1" />
  <defs
     id="defs1" />
  <g
     inkscape:label="Layer 1"
     inkscape:groupmode="layer"
     id="layer1"
     transform="translate(-22.062996,-58.369224)">
    <path
       d="M 89.19869,58.369564 C 63.97021,58.439832 45.090872,69.393171 51.944633,106.69581 l -0.674377,-5.62084 c 26.79907,9.54044 52.979144,8.36707 79.834404,3.66231 -0.34645,-10.26348 -1.34651,-21.367293 -8.42274,-40.283333 l 0.0796,0.01292 C 117.26418,62.131499 109.97966,60.253056 100.34273,58.960743 96.536227,58.571717 92.8026,58.359527 89.19871,58.369565 Z"
       style="fill:#bda473;fill-opacity:1;stroke-width:0.264583"
       id="path7" />
    <path
       d="m 35.532715,123.87254 c 57.758033,14.13903 36.104377,16.32682 111.319305,14.92261 3.69051,-13.99716 -5.6351,-18.25295 -13.55008,-26.001 -26.8755,1.7002 -53.750585,5.88345 -80.626086,-2.46755 0.01963,0.09 0.03901,0.18003 0.05891,0.27027 -0.03709,6.6928 -13.666195,8.039 -17.202051,13.27567 z"
       style="fill:#b79b67;fill-opacity:1;stroke-width:0.264583"
       id="path6" />
    <path
       d="m 166.5826,206.48197 -0.6873,0.0631 c -4.37711,-18.95375 8.68452,-26.98432 -14.28233,-57.49572 -40.63336,2.24709 -79.24992,-0.85111 -117.188715,-16.846 l 0.146761,-1.68982 c -1.670609,7.99267 -11.873359,3.52138 -11.865942,25.85992 -1.903039,23.13076 -0.785093,45.52352 20.508309,54.19979 39.942421,19.01799 79.320967,16.60654 118.287357,-1.46451 1.75363,-0.79174 3.45512,-1.66792 5.08186,-2.62671 z"
       style="fill:#baa06d;fill-opacity:1;stroke-width:0.264583"
       id="path5" />
    <path
       d="m 122.7615,64.466866 -0.0796,-0.01292 c 7.07623,18.91604 8.07629,30.019853 8.42274,40.283334 -31.131489,5.41746 -65.111852,4.68345 -80.098029,-6.825805 l 0.938002,8.784335 c 0.217477,1.18366 0.461305,4.23895 0.731221,5.47616 26.875501,8.351 53.750586,2.32238 80.626086,0.62218 7.91498,7.74805 17.24059,12.00384 13.55008,26.001 -75.214928,1.40421 -53.561272,-0.78358 -111.319305,-14.92261 -0.178889,0.26494 -0.331634,0.53974 -0.455786,0.82579 l -0.276469,3.17965 c 0.01049,1.01116 -0.07124,1.87749 -0.228927,2.63292 l -0.147278,1.6924 c 37.938795,15.99489 76.555355,19.09309 117.188715,16.846 22.96685,30.5114 9.90522,38.54197 14.28233,57.49572 l 0.68781,-0.0631 c 18.14353,-10.69389 26.97819,-31.66406 -5.08237,-60.36221 2.27112,-14.23584 -1.52758,-26.62435 -21.60695,-34.05787 -3.89768,-17.24396 7.65694,-37.064108 -17.13229,-47.595025 z"
       style="fill:#b2945d;fill-opacity:1;stroke-width:0.264583"
       id="path4"
       sodipodi:nodetypes="cccccccccccccccccccc" />
    <path
       d="M 113.9548,71.574443 A 24.90259,19.226263 0 0 1 117.79488,81.831698 24.90259,19.226263 0 0 1 92.892521,101.05791 24.90259,19.226263 0 0 1 75.251737,95.402445 24.90259,19.226263 0 0 0 96.314535,104.37089 24.90259,19.226263 0 0 0 121.21689,85.144674 24.90259,19.226263 0 0 0 113.9548,71.574443 Z"
       style="fill:#d2d2d2;stroke-width:0.264583"
       id="path12" />
    <path
       d="M 113.9548,71.574443 A 24.90259,19.226263 0 0 0 96.314535,65.918457 24.90259,19.226263 0 0 0 71.411662,85.144674 24.90259,19.226263 0 0 0 75.251737,95.402445 24.90259,19.226263 0 0 0 92.892521,101.05791 24.90259,19.226263 0 0 0 117.79488,81.831698 24.90259,19.226263 0 0 0 113.9548,71.574443 Z"
       style="fill:#ffffff;stroke-width:0.264583"
       id="path11" />
    <circle
       style="fill:#001cf1;fill-opacity:1;stroke-width:0.264583"
       id="path9"
       cx="95.032677"
       cy="84.778664"
       r="8.2398272" />
    <circle
       style="fill:#000000;fill-opacity:1;stroke-width:0.264583"
       id="path10"
       cx="94.972656"
       cy="84.588928"
       r="2.1972871" />
    <path
       style="fill:#bc864f;fill-opacity:1;stroke-width:0.305719"
       d="m 45.736613,185.6155 c 36.854388,-14.19274 54.296697,-4.64163 94.794827,-25.88493 26.73695,36.70179 -82.432721,41.13153 -94.794827,25.88493 z"
       id="path1-3"
       sodipodi:nodetypes="ccc" />
    <path
       style="fill:#b98686;fill-opacity:1;stroke-width:0.264583"
       d="m 54.15239,185.51588 c 31.895508,-12.28306 46.9909,-4.01709 82.03987,-22.40203 23.13941,31.76345 -71.341126,35.59715 -82.03987,22.40203 z"
       id="path1"
       sodipodi:nodetypes="ccc" />
    <ellipse
       style="fill:#ffffff;fill-opacity:1;stroke-width:0.264583"
       id="path2"
       cx="66.110229"
       cy="182.18585"
       rx="4.3895869"
       ry="3.0273015" />
    <ellipse
       style="fill:#ffffff;fill-opacity:1;stroke-width:0.264583"
       id="path3"
       cx="80.944008"
       cy="179.76401"
       rx="4.3895869"
       ry="3.632762" />
    <ellipse
       style="fill:#ffffff;fill-opacity:1;stroke-width:0.264583"
       id="path8"
       cx="95.777786"
       cy="177.6449"
       rx="4.3895869"
       ry="3.3300316" />
    <circle
       style="fill:#ffffff;fill-opacity:1;stroke-width:0.264583"
       id="path13"
       cx="108.79518"
       cy="175.37442"
       r="4.0868568" />
    <ellipse
       style="fill:#ffffff;fill-opacity:1;stroke-width:0.264583"
       id="path14"
       cx="121.81258"
       cy="171.43893"
       rx="4.0868568"
       ry="3.7841268" />
    <ellipse
       style="fill:#ffffff;fill-opacity:1;stroke-width:0.264583"
       id="path15"
       cx="134.22452"
       cy="167.80617"
       rx="3.7841268"
       ry="3.1786666" />
    <ellipse
       style="fill:#ffffff;fill-opacity:1;stroke-width:0.264583"
       id="path16"
       cx="76.100327"
       cy="192.7814"
       rx="4.3895869"
       ry="3.0273015" />
    <ellipse
       style="fill:#ffffff;fill-opacity:1;stroke-width:0.264583"
       id="path17"
       cx="92.750481"
       cy="192.63005"
       rx="4.3895869"
       ry="3.7841268" />
    <ellipse
       style="fill:#ffffff;fill-opacity:1;stroke-width:0.264583"
       id="path18"
       cx="106.37334"
       cy="190.96503"
       rx="4.0868568"
       ry="2.4218411" />
    <circle
       style="fill:#ffffff;fill-opacity:1;stroke-width:0.264583"
       id="path19"
       cx="120.14756"
       cy="187.63499"
       r="3.9354918" />
    <ellipse
       style="fill:#ffffff;fill-opacity:1;stroke-width:0.264583"
       id="path20"
       cx="133.16496"
       cy="182.33722"
       rx="3.632762"
       ry="2.5732062" />
  </g>
</svg>
