<?xml version="1.0" encoding="UTF-8" standalone="no"?>
<!-- Created with Inkscape (http://www.inkscape.org/) -->

<svg
   width="210mm"
   height="297mm"
   viewBox="0 0 210 297"
   version="1.1"
   id="svg1"
   inkscape:version="1.4.3 (fcd0343856, 2026-01-01)"
   sodipodi:docname="ring_planet.svg"
   xmlns:inkscape="http://www.inkscape.org/namespaces/inkscape"
   xmlns:sodipodi="http://sodipodi.sourceforge.net/DTD/sodipodi-0.dtd"
   xmlns="http://www.w3.org/2000/svg"
   xmlns:svg="http://www.w3.org/2000/svg">
  <sodipodi:namedview
     id="namedview1"
     pagecolor="#ffffff"
     bordercolor="#000000"
     borderopacity="0.25"
     inkscape:showpageshadow="2"
     inkscape:pageopacity="0.0"
     inkscape:pagecheckerboard="0"
     inkscape:deskcolor="#d1d1d1"
     inkscape:document-units="mm"
     inkscape:zoom="0.72248176"
     inkscape:cx="469.216"
     inkscape:cy="630.46574"
     inkscape:window-width="1850"
     inkscape:window-height="1016"
     inkscape:window-x="70"
     inkscape:window-y="27"
     inkscape:window-maximized="1"
     inkscape:current-layer="layer3" />
  <defs
     id="defs1" />
  <g
     inkscape:label="Layer 1"
     inkscape:groupmode="layer"
     id="layer1">
    <path
       d="M 137.25574,95.221569 A 60.242307,60.242307 0 0 1 149.25628,131.30288 60.242307,60.242307 0 0 1 89.014121,191.5454 60.242307,60.242307 0 0 1 54.847586,180.91925 60.242307,60.242307 0 0 0 103.08921,205.0801 60.242307,60.242307 0 0 0 163.33173,144.83794 60.242307,60.242307 0 0 0 137.25574,95.221569 Z"
       style="fill:#5d8986;stroke-width:0.304363"
       id="path3" />
    <path
       d="M 137.25574,95.221569 A 60.242307,60.242307 0 0 0 103.08921,84.595419 60.242307,60.242307 0 0 0 42.847051,144.83794 60.242307,60.242307 0 0 0 54.847586,180.91925 60.242307,60.242307 0 0 0 89.014121,191.5454 60.242307,60.242307 0 0 0 149.25628,131.30288 60.242307,60.242307 0 0 0 137.25574,95.221569 Z"
       style="fill:#77a29f;stroke-width:0.304363"
       id="path2" />
  </g>
  <g
     inkscape:groupmode="layer"
     id="layer3"
     inkscape:label="Layer 2">
    <path
       d="m 146.14508,151.72562 a 60.242307,60.242307 0 0 0 2.36162,-9.04027 21.276655,104.28619 57.317467 0 1 -32.54169,22.44979 21.276655,104.28619 57.317467 0 1 -43.938399,24.62744 60.242307,60.242307 0 0 0 9.984921,2.07171 24.770939,121.41319 57.317467 0 0 35.117238,-20.51141 24.770939,121.41319 57.317467 0 0 29.01631,-19.59726 z"
       style="fill:#a0ab6e;stroke-width:0.355651"
       id="path10" />
    <path
       d="M 82.011532,191.83429 A 60.242307,60.242307 0 0 1 72.026611,189.76258 21.276655,104.28619 57.317467 0 1 19.06912,201.26317 21.276655,104.28619 57.317467 0 1 46.045768,164.32485 60.242307,60.242307 0 0 1 45.414282,162.2764 24.770939,121.41319 57.317467 0 0 4.3191162,213.38387 24.770939,121.41319 57.317467 0 0 82.011532,191.83429 Z"
       style="fill:#a0ab6e;stroke-width:0.355651"
       id="path9" />
    <path
       d="m 163.04896,138.99255 a 60.242307,60.242307 0 0 0 -1.1653,-6.85488 21.276655,104.28619 57.317467 0 1 -13.37696,10.54768 60.242307,60.242307 0 0 1 -2.36162,9.04027 24.770939,121.41319 57.317467 0 0 16.90388,-12.73307 z"
       style="fill:#a0ab6e;stroke-width:0.355651"
       id="path12" />
    <path
       d="m 197.68767,79.793062 a 24.770939,121.41319 57.317467 0 0 -55.4762,19.96674 60.242307,60.242307 0 0 1 1.14877,1.002008 21.276655,104.28619 57.317467 0 1 41.80003,-14.245127 21.276655,104.28619 57.317467 0 1 10.07691,3.26285 21.276655,104.28619 57.317467 0 1 -33.35352,42.358137 60.242307,60.242307 0 0 1 1.1653,6.85488 24.770939,121.41319 57.317467 0 0 46.37082,-55.400753 24.770939,121.41319 57.317467 0 0 -11.73211,-3.798735 z"
       style="fill:#a0ab6e;stroke-width:0.355651"
       id="path11" />
  </g>
</svg>
